<svg width="3805pt" height="1287pt" viewBox="0.00 0.00 3804.99 1287.20" xmlns="http://www.w3.org/2000/svg" xmlns:xlink="http://www.w3.org/1999/xlink">
<g id="graph0" class="graph" transform="scale(1 1) rotate(0) translate(4 1283.2)">
<title>G</title>
<polygon fill="white" stroke="none" points="-4,4 -4,-1283.2 3800.99,-1283.2 3800.99,4 -4,4"/>
<!-- 10596827897433888724 -->
<g id="node1" class="node">
<title>10596827897433888724</title>
<polygon fill="none" stroke="red" points="2698.17,-1279.2 1599.36,-1261.2 2698.17,-1243.2 3796.99,-1261.2 2698.17,-1279.2"/>
<polyline fill="none" stroke="red" points="1611.35,-1261.4 1611.35,-1261"/>
<polyline fill="none" stroke="red" points="2686.18,-1243.4 2710.17,-1243.4"/>
<polyline fill="none" stroke="red" points="3784.99,-1261 3784.99,-1261.4"/>
<polyline fill="none" stroke="red" points="2710.17,-1279 2686.18,-1279"/>
<text text-anchor="middle" x="2698.17" y="-1257" font-family="Times,serif" font-size="14.00">Foothills - You find yourself standing at the base of an enormous mountain.  At its base to the north, there is a massive doorway.  A sign nearby reads Keep out!  Definitely no treasure within!: tablet</text>
</g>
<!-- 3739290524913183035 -->
<g id="node2" class="node">
<title>3739290524913183035</title>
<ellipse fill="none" stroke="black" cx="2030.17" cy="-1172.4" rx="578.48" ry="18"/>
<text text-anchor="middle" x="2030.17" y="-1168.2" font-family="Times,serif" font-size="14.00">Dark cave - This seems to be the mouth of a deep cave.  As you peer north into the darkness, you think you hear the echoes of bats deeper within.: </text>
</g>
<!-- 10596827897433888724&#45;&gt;3739290524913183035 -->
<g id="edge1" class="edge">
<title>10596827897433888724-&gt;3739290524913183035</title>
<path fill="none" stroke="black" d="M2578.75,-1244.68C2464.84,-1229.88 2293.2,-1207.58 2172.31,-1191.87"/>
<polygon fill="black" stroke="black" points="2173,-1188.43 2162.64,-1190.61 2172.1,-1195.37 2173,-1188.43"/>
<text text-anchor="middle" x="2448.5" y="-1212.6" font-family="Times,serif" font-size="14.00">doorway</text>
</g>
<!-- 2498265932914488225 -->
<g id="node3" class="node">
<title>2498265932914488225</title>
<ellipse fill="none" stroke="black" cx="2968.17" cy="-1172.4" rx="341.44" ry="18"/>
<text text-anchor="middle" x="2968.17" y="-1168.2" font-family="Times,serif" font-size="14.00">Foothills - As you begin to leave, you feel the urge for adventure pulling you back...: </text>
</g>
<!-- 10596827897433888724&#45;&gt;2498265932914488225 -->
<g id="edge2" class="edge">
<title>10596827897433888724-&gt;2498265932914488225</title>
<path fill="none" stroke="black" d="M2749.91,-1243.57C2793.81,-1229.46 2856.97,-1209.15 2904.07,-1194.01"/>
<polygon fill="black" stroke="black" points="2904.87,-1197.43 2913.32,-1191.03 2902.73,-1190.76 2904.87,-1197.43"/>
<text text-anchor="middle" x="2872.53" y="-1212.6" font-family="Times,serif" font-size="14.00">south</text>
</g>
<!-- 3739290524913183035&#45;&gt;10596827897433888724 -->
<g id="edge4" class="edge">
<title>3739290524913183035-&gt;10596827897433888724</title>
<path fill="none" stroke="black" d="M2308.43,-1188.6C2364.48,-1193.51 2422.85,-1199.96 2477.17,-1208.4 2528.22,-1216.33 2584.94,-1229.72 2628.13,-1240.9"/>
<polygon fill="black" stroke="black" points="2627.07,-1244.24 2637.63,-1243.39 2628.84,-1237.47 2627.07,-1244.24"/>
<text text-anchor="middle" x="2578.03" y="-1212.6" font-family="Times,serif" font-size="14.00">south</text>
</g>
<!-- 10745196598322957797 -->
<g id="node4" class="node">
<title>10745196598322957797</title>
<ellipse fill="none" stroke="black" cx="1977.17" cy="-1083.6" rx="420.53" ry="18"/>
<text text-anchor="middle" x="1977.17" y="-1079.4" font-family="Times,serif" font-size="14.00">Dark cave - The cave is somewhat narrow here, and the light from the doorway to the south is quite dim.: </text>
</g>
<!-- 3739290524913183035&#45;&gt;10745196598322957797 -->
<g id="edge3" class="edge">
<title>3739290524913183035-&gt;10745196598322957797</title>
<path fill="none" stroke="black" d="M1994.89,-1154.13C1988.4,-1149.31 1982.47,-1143.42 1978.62,-1136.4 1974.83,-1129.48 1973.47,-1121.23 1973.31,-1113.37"/>
<polygon fill="black" stroke="black" points="1976.81,-1113.62 1973.78,-1103.47 1969.81,-1113.29 1976.81,-1113.62"/>
<text text-anchor="middle" x="1993.4" y="-1123.8" font-family="Times,serif" font-size="14.00">north</text>
</g>
<!-- 2498265932914488225&#45;&gt;10596827897433888724 -->
<g id="edge9" class="edge">
<title>2498265932914488225-&gt;10596827897433888724</title>
<path fill="none" stroke="black" d="M2947.93,-1190.7C2933.36,-1202.25 2912.72,-1216.8 2892.17,-1225.2 2875.03,-1232.21 2856.46,-1237.83 2837.84,-1242.32"/>
<polygon fill="black" stroke="black" points="2837.32,-1238.85 2828.35,-1244.5 2838.88,-1245.67 2837.32,-1238.85"/>
<text text-anchor="middle" x="2937.96" y="-1212.6" font-family="Times,serif" font-size="14.00">north</text>
</g>
<!-- 10745196598322957797&#45;&gt;3739290524913183035 -->
<g id="edge6" class="edge">
<title>10745196598322957797-&gt;3739290524913183035</title>
<path fill="none" stroke="black" d="M1994.45,-1101.87C1999.28,-1107.26 2004.27,-1113.42 2008.17,-1119.6 2012.78,-1126.9 2016.83,-1135.33 2020.16,-1143.24"/>
<polygon fill="black" stroke="black" points="2016.88,-1144.48 2023.81,-1152.5 2023.4,-1141.92 2016.88,-1144.48"/>
<text text-anchor="middle" x="2032.09" y="-1123.8" font-family="Times,serif" font-size="14.00">south</text>
</g>
<!-- 7362003945979257962 -->
<g id="node5" class="node">
<title>7362003945979257962</title>
<ellipse fill="none" stroke="black" cx="2308.17" cy="-994.8" rx="781.42" ry="18"/>
<text text-anchor="middle" x="2308.17" y="-990.6" font-family="Times,serif" font-size="14.00">Dark cave - The cave acoustics dramatically change as you find yourself at a legde above a large chasm.  There is barely enough light here to notice a rope bridge leading out into the dark emptiness.: </text>
</g>
<!-- 10745196598322957797&#45;&gt;7362003945979257962 -->
<g id="edge5" class="edge">
<title>10745196598322957797-&gt;7362003945979257962</title>
<path fill="none" stroke="black" d="M2042.96,-1065.35C2097.05,-1051.16 2173.79,-1031.04 2230.81,-1016.09"/>
<polygon fill="black" stroke="black" points="2231.69,-1019.47 2240.48,-1013.55 2229.92,-1012.7 2231.69,-1019.47"/>
<text text-anchor="middle" x="2187.1" y="-1035" font-family="Times,serif" font-size="14.00">north</text>
</g>
<!-- 7362003945979257962&#45;&gt;3739290524913183035 -->
<g id="edge8" class="edge">
<title>7362003945979257962-&gt;3739290524913183035</title>
<path fill="none" stroke="black" d="M2344.81,-1013.19C2383.12,-1033.7 2434.2,-1069.11 2407.17,-1101.6 2386,-1127.05 2324.38,-1143.26 2256.92,-1153.57"/>
<polygon fill="black" stroke="black" points="2256.49,-1150.09 2247.11,-1155.02 2257.51,-1157.02 2256.49,-1150.09"/>
<text text-anchor="middle" x="2429.91" y="-1079.4" font-family="Times,serif" font-size="14.00">south</text>
</g>
<!-- 7060345441502436550 -->
<g id="node6" class="node">
<title>7060345441502436550</title>
<ellipse fill="none" stroke="black" cx="2308.17" cy="-906" rx="532.25" ry="18"/>
<text text-anchor="middle" x="2308.17" y="-901.8" font-family="Times,serif" font-size="14.00">Rope bridge - This rope bridge creaks as you walk along it.  You aren't sure how old it is, or whether it can even support your weight.: </text>
</g>
<!-- 7362003945979257962&#45;&gt;7060345441502436550 -->
<g id="edge7" class="edge">
<title>7362003945979257962-&gt;7060345441502436550</title>
<path fill="none" stroke="black" d="M2290.61,-976.33C2286.46,-971.12 2282.6,-965.1 2280.41,-958.8 2277.95,-951.75 2277.95,-949.05 2280.41,-942 2281.37,-939.24 2282.65,-936.54 2284.13,-933.94"/>
<polygon fill="black" stroke="black" points="2286.99,-935.95 2289.75,-925.72 2281.22,-932 2286.99,-935.95"/>
<text text-anchor="middle" x="2298.29" y="-946.2" font-family="Times,serif" font-size="14.00">bridge</text>
</g>
<!-- 7060345441502436550&#45;&gt;7362003945979257962 -->
<g id="edge11" class="edge">
<title>7060345441502436550-&gt;7362003945979257962</title>
<path fill="none" stroke="black" d="M2312.94,-924.31C2314.26,-929.91 2315.52,-936.18 2316.17,-942 2317.01,-949.42 2317.01,-951.38 2316.17,-958.8 2315.93,-960.98 2315.6,-963.23 2315.21,-965.48"/>
<polygon fill="black" stroke="black" points="2311.84,-964.5 2313.25,-975 2318.69,-965.92 2311.84,-964.5"/>
<text text-anchor="middle" x="2330.02" y="-946.2" font-family="Times,serif" font-size="14.00">back</text>
</g>
<!-- 15792491465471004955 -->
<g id="node7" class="node">
<title>15792491465471004955</title>
<ellipse fill="none" stroke="black" cx="2308.17" cy="-817.2" rx="770.29" ry="18"/>
<text text-anchor="middle" x="2308.17" y="-813" font-family="Times,serif" font-size="14.00">Falling through the air! - As you continue along the bridge, it snaps!  You try to grab the bridge, but it evades your grasp in the darkness.  You are plummeting quickly downward into the chasm...: </text>
</g>
<!-- 7060345441502436550&#45;&gt;15792491465471004955 -->
<g id="edge10" class="edge">
<title>7060345441502436550-&gt;15792491465471004955</title>
<path fill="none" stroke="black" d="M2308.17,-887.85C2308.17,-876.16 2308.17,-860.39 2308.17,-846.82"/>
<polygon fill="black" stroke="black" points="2311.67,-847.12 2308.17,-837.12 2304.67,-847.12 2311.67,-847.12"/>
<text text-anchor="middle" x="2332.28" y="-857.4" font-family="Times,serif" font-size="14.00">continue</text>
</g>
<!-- 4311398612712690012 -->
<g id="node8" class="node">
<title>4311398612712690012</title>
<ellipse fill="none" stroke="black" cx="2308.17" cy="-728.4" rx="872.39" ry="18"/>
<text text-anchor="middle" x="2308.17" y="-724.2" font-family="Times,serif" font-size="14.00">Moss cavern - You are standing in a large cavern full of bioluminescent moss.  It must have broken your fall!  The cavern extends to the east and west; at the west end, you think you see a passage leading out of the cavern.: </text>
</g>
<!-- 15792491465471004955&#45;&gt;4311398612712690012 -->
<g id="edge12" class="edge">
<title>15792491465471004955-&gt;4311398612712690012</title>
<path fill="none" stroke="black" d="M2308.17,-799.05C2308.17,-787.36 2308.17,-771.59 2308.17,-758.02"/>
<polygon fill="black" stroke="black" points="2311.67,-758.32 2308.17,-748.32 2304.67,-758.32 2311.67,-758.32"/>
<text text-anchor="middle" x="2323.73" y="-768.6" font-family="Times,serif" font-size="14.00">down</text>
</g>
<!-- 8601122719835159294 -->
<g id="node9" class="node">
<title>8601122719835159294</title>
<ellipse fill="none" stroke="black" cx="1385.17" cy="-639.6" rx="672.06" ry="18"/>
<text text-anchor="middle" x="1385.17" y="-635.4" font-family="Times,serif" font-size="14.00">Moss cavern - You are standing in a large cavern full of bioluminescent moss.  The cavern extends to the east.  There is a crevise in the rocks which opens into a passage.: </text>
</g>
<!-- 4311398612712690012&#45;&gt;8601122719835159294 -->
<g id="edge13" class="edge">
<title>4311398612712690012-&gt;8601122719835159294</title>
<path fill="none" stroke="black" d="M2126.64,-710.33C1967.39,-695.35 1736.64,-673.65 1574.97,-658.45"/>
<polygon fill="black" stroke="black" points="1575.73,-655 1565.45,-657.55 1575.08,-661.97 1575.73,-655"/>
<text text-anchor="middle" x="1942.18" y="-679.8" font-family="Times,serif" font-size="14.00">west</text>
</g>
<!-- 16810952797936036946 -->
<g id="node10" class="node">
<title>16810952797936036946</title>
<ellipse fill="none" stroke="red" cx="2573.17" cy="-639.6" rx="498.03" ry="18"/>
<text text-anchor="middle" x="2573.17" y="-635.4" font-family="Times,serif" font-size="14.00">Moss cavern - You are standing in a large cavern full of bioluminescent moss.  The cavern extends to the west.: empty lantern</text>
</g>
<!-- 4311398612712690012&#45;&gt;16810952797936036946 -->
<g id="edge14" class="edge">
<title>4311398612712690012-&gt;16810952797936036946</title>
<path fill="none" stroke="black" d="M2359.86,-709.96C2390.03,-699.83 2428.84,-686.88 2463.41,-675.6 2477.65,-670.95 2492.96,-666.03 2507.48,-661.39"/>
<polygon fill="black" stroke="black" points="2508.51,-664.74 2516.97,-658.36 2506.38,-658.07 2508.51,-664.74"/>
<text text-anchor="middle" x="2474.29" y="-679.8" font-family="Times,serif" font-size="14.00">east</text>
</g>
<!-- 8601122719835159294&#45;&gt;4311398612712690012 -->
<g id="edge15" class="edge">
<title>8601122719835159294-&gt;4311398612712690012</title>
<path fill="none" stroke="black" d="M1713.78,-655.73C1794.16,-660.79 1879.86,-667.31 1959.17,-675.6 2038.67,-683.91 2127.8,-697.2 2196.08,-708.25"/>
<polygon fill="black" stroke="black" points="2195.36,-711.67 2205.8,-709.82 2196.49,-704.76 2195.36,-711.67"/>
<text text-anchor="middle" x="2095.18" y="-679.8" font-family="Times,serif" font-size="14.00">east</text>
</g>
<!-- 13392660594003401201 -->
<g id="node11" class="node">
<title>13392660594003401201</title>
<ellipse fill="none" stroke="black" cx="1385.17" cy="-550.8" rx="732.65" ry="18"/>
<text text-anchor="middle" x="1385.17" y="-546.6" font-family="Times,serif" font-size="14.00">Passage - You are in a crevise on the west wall of the moss cavern.  A dark passage leads further west.  There is a ladder here which leads down into a smaller, moss-filled cavern below.: </text>
</g>
<!-- 8601122719835159294&#45;&gt;13392660594003401201 -->
<g id="edge16" class="edge">
<title>8601122719835159294-&gt;13392660594003401201</title>
<path fill="none" stroke="black" d="M1364.93,-621.12C1360.34,-615.99 1356.1,-610.01 1353.64,-603.6 1350.96,-596.63 1350.96,-593.77 1353.64,-586.8 1354.75,-583.89 1356.23,-581.08 1357.95,-578.39"/>
<polygon fill="black" stroke="black" points="1360.7,-580.55 1364.01,-570.48 1355.15,-576.29 1360.7,-580.55"/>
<text text-anchor="middle" x="1375.4" y="-591" font-family="Times,serif" font-size="14.00">passage</text>
</g>
<!-- 16810952797936036946&#45;&gt;4311398612712690012 -->
<g id="edge17" class="edge">
<title>16810952797936036946-&gt;4311398612712690012</title>
<path fill="none" stroke="black" d="M2548.89,-657.92C2531.82,-669.33 2508.04,-683.7 2485.17,-692.4 2469.56,-698.34 2452.78,-703.32 2435.98,-707.49"/>
<polygon fill="black" stroke="black" points="2435.35,-704.05 2426.43,-709.77 2436.97,-710.86 2435.35,-704.05"/>
<text text-anchor="middle" x="2530.88" y="-679.8" font-family="Times,serif" font-size="14.00">west</text>
</g>
<!-- 13392660594003401201&#45;&gt;8601122719835159294 -->
<g id="edge18" class="edge">
<title>13392660594003401201-&gt;8601122719835159294</title>
<path fill="none" stroke="black" d="M1392.32,-568.95C1394.3,-574.54 1396.18,-580.84 1397.17,-586.8 1398.4,-594.17 1398.4,-596.23 1397.17,-603.6 1396.79,-605.93 1396.26,-608.31 1395.65,-610.67"/>
<polygon fill="black" stroke="black" points="1392.38,-609.41 1392.76,-620 1399.06,-611.48 1392.38,-609.41"/>
<text text-anchor="middle" x="1416.75" y="-591" font-family="Times,serif" font-size="14.00">cavern</text>
</g>
<!-- 14582385743654621973 -->
<g id="node12" class="node">
<title>14582385743654621973</title>
<ellipse fill="none" stroke="black" cx="1591.17" cy="-462" rx="554.37" ry="18"/>
<text text-anchor="middle" x="1591.17" y="-457.8" font-family="Times,serif" font-size="14.00">Twisty passages - You are in a maze of twisty little passages, all dimly lit by more bioluminescent moss.  There is a ladder here leading up.: </text>
</g>
<!-- 13392660594003401201&#45;&gt;14582385743654621973 -->
<g id="edge19" class="edge">
<title>13392660594003401201-&gt;14582385743654621973</title>
<path fill="none" stroke="black" d="M1418.82,-532.55C1439.93,-522.01 1467.86,-508.57 1493.19,-498 1504.55,-493.26 1516.81,-488.57 1528.68,-484.23"/>
<polygon fill="black" stroke="black" points="1529.79,-487.55 1538.01,-480.86 1527.41,-480.96 1529.79,-487.55"/>
<text text-anchor="middle" x="1510.68" y="-502.2" font-family="Times,serif" font-size="14.00">ladder</text>
</g>
<!-- 4210895095239579398 -->
<g id="node13" class="node">
<title>4210895095239579398</title>
<ellipse fill="none" stroke="black" cx="757.17" cy="-462" rx="262.04" ry="18"/>
<text text-anchor="middle" x="757.17" y="-457.8" font-family="Times,serif" font-size="14.00">Passage - It is pitch black.  You are likely to be eaten by a grue.: </text>
</g>
<!-- 13392660594003401201&#45;&gt;4210895095239579398 -->
<g id="edge20" class="edge">
<title>13392660594003401201-&gt;4210895095239579398</title>
<path fill="none" stroke="black" d="M1260.73,-532.6C1150.88,-517.42 991.57,-495.4 881.7,-480.21"/>
<polygon fill="black" stroke="black" points="882.44,-476.78 872.06,-478.88 881.48,-483.71 882.44,-476.78"/>
<text text-anchor="middle" x="1151.92" y="-502.2" font-family="Times,serif" font-size="14.00">darkness</text>
</g>
<!-- 14582385743654621973&#45;&gt;13392660594003401201 -->
<g id="edge27" class="edge">
<title>14582385743654621973-&gt;13392660594003401201</title>
<path fill="none" stroke="black" d="M1574.5,-480.3C1562.59,-491.68 1545.65,-506.05 1528.17,-514.8 1516.95,-520.42 1504.77,-525.17 1492.41,-529.18"/>
<polygon fill="black" stroke="black" points="1491.51,-525.8 1482.97,-532.07 1493.56,-532.49 1491.51,-525.8"/>
<text text-anchor="middle" x="1570.07" y="-502.2" font-family="Times,serif" font-size="14.00">ladder</text>
</g>
<!-- 1510794897565342164 -->
<g id="node17" class="node">
<title>1510794897565342164</title>
<ellipse fill="none" stroke="black" cx="1452.17" cy="-195.6" rx="288.33" ry="18"/>
<text text-anchor="middle" x="1452.17" y="-191.4" font-family="Times,serif" font-size="14.00">Twisty passages - You are in a twisty maze of little passages, all alike.: </text>
</g>
<!-- 14582385743654621973&#45;&gt;1510794897565342164 -->
<g id="edge28" class="edge">
<title>14582385743654621973-&gt;1510794897565342164</title>
<path fill="none" stroke="black" d="M1588.44,-443.62C1580.63,-395.93 1557.01,-264.38 1529.17,-231.6 1525.25,-226.98 1520.6,-222.95 1515.54,-219.42"/>
<polygon fill="black" stroke="black" points="1517.73,-216.66 1507.38,-214.41 1514.07,-222.62 1517.73,-216.66"/>
<text text-anchor="middle" x="1582.29" y="-324.6" font-family="Times,serif" font-size="14.00">north</text>
</g>
<!-- 761285925978319351 -->
<g id="node18" class="node">
<title>761285925978319351</title>
<ellipse fill="none" stroke="black" cx="1505.17" cy="-106.8" rx="288.33" ry="18"/>
<text text-anchor="middle" x="1505.17" y="-102.6" font-family="Times,serif" font-size="14.00">Twisty passages - You are in a maze of little twisty passages, all alike.: </text>
</g>
<!-- 14582385743654621973&#45;&gt;761285925978319351 -->
<g id="edge29" class="edge">
<title>14582385743654621973-&gt;761285925978319351</title>
<path fill="none" stroke="black" d="M1594.79,-443.58C1595.92,-437.97 1597.14,-431.73 1598.17,-426 1610.92,-355.3 1593.35,-331.46 1623.84,-266.4 1632.54,-247.82 1636.08,-241.28 1654.17,-231.6 1681.64,-216.91 1772.61,-237 1793.17,-213.6 1803.74,-201.58 1803.07,-190.18 1793.17,-177.6 1773.93,-153.14 1708.54,-136.2 1644.92,-125.15"/>
<polygon fill="black" stroke="black" points="1645.84,-121.76 1635.4,-123.54 1644.68,-128.66 1645.84,-121.76"/>
<text text-anchor="middle" x="1639" y="-280.2" font-family="Times,serif" font-size="14.00">south</text>
</g>
<!-- 10246474533508990071 -->
<g id="node19" class="node">
<title>10246474533508990071</title>
<ellipse fill="none" stroke="black" cx="1150.17" cy="-373.2" rx="288.33" ry="18"/>
<text text-anchor="middle" x="1150.17" y="-369" font-family="Times,serif" font-size="14.00">Twisty passages - You are in a maze of alike little passages, all twisty.: </text>
</g>
<!-- 14582385743654621973&#45;&gt;10246474533508990071 -->
<g id="edge30" class="edge">
<title>14582385743654621973-&gt;10246474533508990071</title>
<path fill="none" stroke="black" d="M1503.52,-443.75C1429.06,-429.09 1322.38,-408.1 1245.75,-393.01"/>
<polygon fill="black" stroke="black" points="1246.64,-389.62 1236.15,-391.12 1245.29,-396.49 1246.64,-389.62"/>
<text text-anchor="middle" x="1421.06" y="-413.4" font-family="Times,serif" font-size="14.00">east</text>
</g>
<!-- 13445746687424091506 -->
<g id="node20" class="node">
<title>13445746687424091506</title>
<ellipse fill="none" stroke="black" cx="1930.17" cy="-373.2" rx="288.33" ry="18"/>
<text text-anchor="middle" x="1930.17" y="-369" font-family="Times,serif" font-size="14.00">Twisty passages - You are in a little maze of twisty passages, all alike.: </text>
</g>
<!-- 14582385743654621973&#45;&gt;13445746687424091506 -->
<g id="edge31" class="edge">
<title>14582385743654621973-&gt;13445746687424091506</title>
<path fill="none" stroke="black" d="M1645.44,-443.67C1679.69,-433.03 1724.97,-419.52 1765.51,-409.2 1787.78,-403.53 1811.91,-398.05 1834.65,-393.16"/>
<polygon fill="black" stroke="black" points="1835.15,-396.63 1844.2,-391.13 1833.69,-389.79 1835.15,-396.63"/>
<text text-anchor="middle" x="1778.34" y="-413.4" font-family="Times,serif" font-size="14.00">west</text>
</g>
<!-- 4210895095239579398&#45;&gt;13392660594003401201 -->
<g id="edge22" class="edge">
<title>4210895095239579398-&gt;13392660594003401201</title>
<path fill="none" stroke="black" d="M940.7,-475.19C1033.03,-481.93 1134.79,-490.44 1180.17,-498 1226.18,-505.66 1277.02,-518.48 1316.55,-529.44"/>
<polygon fill="black" stroke="black" points="1315.36,-532.75 1325.94,-532.07 1317.25,-526.01 1315.36,-532.75"/>
<text text-anchor="middle" x="1272.97" y="-502.2" font-family="Times,serif" font-size="14.00">back</text>
</g>
<!-- 9099831910955636207 -->
<g id="node14" class="node">
<title>9099831910955636207</title>
<ellipse fill="none" stroke="black" cx="540.17" cy="-195.6" rx="540.17" ry="18"/>
<text text-anchor="middle" x="540.17" y="-191.4" font-family="Times,serif" font-size="14.00">Fumbling around in the darkness - Without a source of light, you have become hopelessly lost and are fumbling around in the darkness.: </text>
</g>
<!-- 4210895095239579398&#45;&gt;9099831910955636207 -->
<g id="edge21" class="edge">
<title>4210895095239579398-&gt;9099831910955636207</title>
<path fill="none" stroke="black" d="M742.94,-443.65C705.77,-398.36 605.64,-276.37 561.53,-222.63"/>
<polygon fill="black" stroke="black" points="564.47,-220.69 555.42,-215.18 559.06,-225.13 564.47,-220.69"/>
<text text-anchor="middle" x="677.78" y="-324.6" font-family="Times,serif" font-size="14.00">continue</text>
</g>
<!-- 3301912604936586768 -->
<g id="node15" class="node">
<title>3301912604936586768</title>
<ellipse fill="none" stroke="black" cx="541.17" cy="-106.8" rx="523.96" ry="18"/>
<text text-anchor="middle" x="541.17" y="-102.6" font-family="Times,serif" font-size="14.00">Fumbling around in the darkness - You can't seem to find your way.  However, you do think you hear low growling in the distance.: </text>
</g>
<!-- 9099831910955636207&#45;&gt;3301912604936586768 -->
<g id="edge23" class="edge">
<title>9099831910955636207-&gt;3301912604936586768</title>
<path fill="none" stroke="black" d="M541.96,-177.17C542.46,-171.57 542.93,-165.33 543.17,-159.6 543.5,-152.05 543.39,-143.87 543.11,-136.3"/>
<polygon fill="black" stroke="black" points="546.62,-136.39 542.62,-126.58 539.62,-136.74 546.62,-136.39"/>
<text text-anchor="middle" x="565.53" y="-147" font-family="Times,serif" font-size="14.00">forward</text>
</g>
<!-- 9099831910955636207&#45;&gt;3301912604936586768 -->
<g id="edge24" class="edge">
<title>9099831910955636207-&gt;3301912604936586768</title>
<path fill="none" stroke="black" d="M523.1,-177.46C518.9,-172.16 514.96,-166.02 512.75,-159.6 510.31,-152.54 510.25,-149.84 512.75,-142.8 513.77,-139.93 515.14,-137.11 516.72,-134.42"/>
<polygon fill="black" stroke="black" points="519.43,-136.64 522.32,-126.45 513.71,-132.62 519.43,-136.64"/>
<text text-anchor="middle" x="525.96" y="-147" font-family="Times,serif" font-size="14.00">back</text>
</g>
<!-- 13412278281707794844 -->
<g id="node16" class="node">
<title>13412278281707794844</title>
<ellipse fill="none" stroke="black" cx="541.17" cy="-18" rx="107.61" ry="18"/>
<text text-anchor="middle" x="541.17" y="-13.8" font-family="Times,serif" font-size="14.00">13412278281707794844</text>
</g>
<!-- 3301912604936586768&#45;&gt;13412278281707794844 -->
<g id="edge25" class="edge">
<title>3301912604936586768-&gt;13412278281707794844</title>
<path fill="none" stroke="black" d="M529.1,-88.39C526,-83 523.1,-76.87 521.51,-70.8 519.62,-63.58 519.62,-61.22 521.51,-54 522.2,-51.38 523.13,-48.76 524.21,-46.18"/>
<polygon fill="black" stroke="black" points="527.26,-47.91 528.62,-37.4 521,-44.76 527.26,-47.91"/>
<text text-anchor="middle" x="530.84" y="-58.2" font-family="Times,serif" font-size="14.00">run</text>
</g>
<!-- 3301912604936586768&#45;&gt;13412278281707794844 -->
<g id="edge26" class="edge">
<title>3301912604936586768-&gt;13412278281707794844</title>
<path fill="none" stroke="black" d="M541.17,-88.65C541.17,-76.96 541.17,-61.19 541.17,-47.62"/>
<polygon fill="black" stroke="black" points="544.67,-47.92 541.17,-37.92 537.67,-47.92 544.67,-47.92"/>
<text text-anchor="middle" x="571.5" y="-58.2" font-family="Times,serif" font-size="14.00">investigate</text>
</g>
<!-- 1510794897565342164&#45;&gt;14582385743654621973 -->
<g id="edge51" class="edge">
<title>1510794897565342164-&gt;14582385743654621973</title>
<path fill="none" stroke="black" d="M1463.98,-214.04C1473.2,-227.95 1486.09,-248.08 1496.17,-266.4 1512.97,-296.92 1514.62,-305.86 1529.84,-337.2 1545.99,-370.47 1564.93,-408.57 1577.45,-433.62"/>
<polygon fill="black" stroke="black" points="1574.27,-435.09 1581.87,-442.47 1580.53,-431.96 1574.27,-435.09"/>
<text text-anchor="middle" x="1545" y="-324.6" font-family="Times,serif" font-size="14.00">south</text>
</g>
<!-- 1510794897565342164&#45;&gt;1510794897565342164 -->
<g id="edge52" class="edge">
<title>1510794897565342164-&gt;1510794897565342164</title>
<path fill="none" stroke="black" d="M1723.03,-201.97C1744.93,-200.59 1758.5,-198.46 1758.5,-195.6 1758.5,-193.27 1749.54,-191.44 1734.44,-190.09"/>
<polygon fill="black" stroke="black" points="1734.77,-186.6 1724.54,-189.34 1734.25,-193.58 1734.77,-186.6"/>
<text text-anchor="middle" x="1771.33" y="-191.4" font-family="Times,serif" font-size="14.00">west</text>
</g>
<!-- 1510794897565342164&#45;&gt;761285925978319351 -->
<g id="edge50" class="edge">
<title>1510794897565342164-&gt;761285925978319351</title>
<path fill="none" stroke="black" d="M1469.45,-177.33C1474.28,-171.94 1479.27,-165.78 1483.17,-159.6 1487.78,-152.3 1491.83,-143.87 1495.16,-135.96"/>
<polygon fill="black" stroke="black" points="1498.4,-137.28 1498.81,-126.7 1491.88,-134.72 1498.4,-137.28"/>
<text text-anchor="middle" x="1506.7" y="-147" font-family="Times,serif" font-size="14.00">north</text>
</g>
<!-- 761285925978319351&#45;&gt;14582385743654621973 -->
<g id="edge42" class="edge">
<title>761285925978319351-&gt;14582385743654621973</title>
<path fill="none" stroke="black" d="M1767.66,-114.47C2084.92,-123.94 2586.55,-143.99 2667.17,-177.6 2677.63,-181.96 2686.17,-183.27 2686.17,-194.6 2686.17,-374.2 2686.17,-374.2 2686.17,-374.2 2686.17,-410.74 2293.48,-434.65 1978.42,-447.95"/>
<polygon fill="black" stroke="black" points="1978.6,-444.43 1968.76,-448.35 1978.89,-451.43 1978.6,-444.43"/>
<text text-anchor="middle" x="2700.95" y="-280.2" font-family="Times,serif" font-size="14.00">north</text>
</g>
<!-- 761285925978319351&#45;&gt;1510794897565342164 -->
<g id="edge43" class="edge">
<title>761285925978319351-&gt;1510794897565342164</title>
<path fill="none" stroke="black" d="M1469.01,-125.13C1462.53,-129.93 1456.64,-135.79 1452.84,-142.8 1449.08,-149.73 1447.81,-157.99 1447.78,-165.85"/>
<polygon fill="black" stroke="black" points="1444.28,-165.99 1448.41,-175.75 1451.27,-165.55 1444.28,-165.99"/>
<text text-anchor="middle" x="1468" y="-147" font-family="Times,serif" font-size="14.00">south</text>
</g>
<!-- 761285925978319351&#45;&gt;761285925978319351 -->
<g id="edge44" class="edge">
<title>761285925978319351-&gt;761285925978319351</title>
<path fill="none" stroke="black" d="M1776.03,-113.17C1797.93,-111.79 1811.5,-109.66 1811.5,-106.8 1811.5,-104.47 1802.54,-102.64 1787.44,-101.29"/>
<polygon fill="black" stroke="black" points="1787.77,-97.8 1777.54,-100.54 1787.25,-104.78 1787.77,-97.8"/>
<text text-anchor="middle" x="1822.39" y="-102.6" font-family="Times,serif" font-size="14.00">east</text>
</g>
<!-- 10246474533508990071&#45;&gt;14582385743654621973 -->
<g id="edge37" class="edge">
<title>10246474533508990071-&gt;14582385743654621973</title>
<path fill="none" stroke="black" d="M1192.86,-391.5C1222.8,-402.96 1264.02,-417.42 1301.51,-426 1331.66,-432.9 1363.9,-438.5 1395.52,-443.03"/>
<polygon fill="black" stroke="black" points="1394.79,-446.46 1405.18,-444.37 1395.76,-439.53 1394.79,-446.46"/>
<text text-anchor="middle" x="1314.34" y="-413.4" font-family="Times,serif" font-size="14.00">west</text>
</g>
<!-- 10246474533508990071&#45;&gt;9099831910955636207 -->
<g id="edge38" class="edge">
<title>10246474533508990071-&gt;9099831910955636207</title>
<path fill="none" stroke="black" d="M1057.9,-355.7C993.76,-343.33 906.63,-324.73 831.41,-302.4 746.12,-277.08 727.96,-261.53 644.17,-231.6 631.08,-226.92 617,-222.07 603.56,-217.52"/>
<polygon fill="black" stroke="black" points="604.97,-214.3 594.38,-214.42 602.74,-220.93 604.97,-214.3"/>
<text text-anchor="middle" x="842.29" y="-280.2" font-family="Times,serif" font-size="14.00">east</text>
</g>
<!-- 10246474533508990071&#45;&gt;10246474533508990071 -->
<g id="edge36" class="edge">
<title>10246474533508990071-&gt;10246474533508990071</title>
<path fill="none" stroke="black" d="M1421.03,-379.57C1442.93,-378.19 1456.5,-376.06 1456.5,-373.2 1456.5,-370.87 1447.54,-369.04 1432.44,-367.69"/>
<polygon fill="black" stroke="black" points="1432.77,-364.2 1422.54,-366.94 1432.25,-371.18 1432.77,-364.2"/>
<text text-anchor="middle" x="1471.67" y="-369" font-family="Times,serif" font-size="14.00">south</text>
</g>
<!-- 4222133561363487455 -->
<g id="node22" class="node">
<title>4222133561363487455</title>
<ellipse fill="none" stroke="black" cx="1150.17" cy="-284.4" rx="288.33" ry="18"/>
<text text-anchor="middle" x="1150.17" y="-280.2" font-family="Times,serif" font-size="14.00">Twisty passages - You are in a maze of alike twisty passages, all little.: </text>
</g>
<!-- 10246474533508990071&#45;&gt;4222133561363487455 -->
<g id="edge35" class="edge">
<title>10246474533508990071-&gt;4222133561363487455</title>
<path fill="none" stroke="black" d="M1150.17,-355.05C1150.17,-343.36 1150.17,-327.59 1150.17,-314.02"/>
<polygon fill="black" stroke="black" points="1153.67,-314.32 1150.17,-304.32 1146.67,-314.32 1153.67,-314.32"/>
<text text-anchor="middle" x="1164.95" y="-324.6" font-family="Times,serif" font-size="14.00">north</text>
</g>
<!-- 13445746687424091506&#45;&gt;14582385743654621973 -->
<g id="edge34" class="edge">
<title>13445746687424091506-&gt;14582385743654621973</title>
<path fill="none" stroke="black" d="M1889.76,-391.51C1862.37,-402.68 1825.1,-416.79 1791.17,-426 1768.63,-432.12 1744.36,-437.41 1720.77,-441.9"/>
<polygon fill="black" stroke="black" points="1720.3,-438.43 1711.11,-443.7 1721.58,-445.31 1720.3,-438.43"/>
<text text-anchor="middle" x="1852.54" y="-413.4" font-family="Times,serif" font-size="14.00">east</text>
</g>
<!-- 13445746687424091506&#45;&gt;13445746687424091506 -->
<g id="edge32" class="edge">
<title>13445746687424091506-&gt;13445746687424091506</title>
<path fill="none" stroke="black" d="M2201.03,-379.57C2222.93,-378.19 2236.5,-376.06 2236.5,-373.2 2236.5,-370.87 2227.54,-369.04 2212.44,-367.69"/>
<polygon fill="black" stroke="black" points="2212.77,-364.2 2202.54,-366.94 2212.25,-371.18 2212.77,-364.2"/>
<text text-anchor="middle" x="2251.28" y="-369" font-family="Times,serif" font-size="14.00">north</text>
</g>
<!-- 13251545599885434518 -->
<g id="node21" class="node">
<title>13251545599885434518</title>
<ellipse fill="none" stroke="black" cx="1951.17" cy="-284.4" rx="288.33" ry="18"/>
<text text-anchor="middle" x="1951.17" y="-280.2" font-family="Times,serif" font-size="14.00">Twisty passages - You are in a twisty alike of little passages, all maze.: </text>
</g>
<!-- 13445746687424091506&#45;&gt;13251545599885434518 -->
<g id="edge33" class="edge">
<title>13445746687424091506-&gt;13251545599885434518</title>
<path fill="none" stroke="black" d="M1934.32,-355.05C1937.18,-343.24 1941.04,-327.27 1944.35,-313.61"/>
<polygon fill="black" stroke="black" points="1947.66,-314.82 1946.61,-304.28 1940.85,-313.18 1947.66,-314.82"/>
<text text-anchor="middle" x="1957.72" y="-324.6" font-family="Times,serif" font-size="14.00">south</text>
</g>
<!-- 13251545599885434518&#45;&gt;9099831910955636207 -->
<g id="edge48" class="edge">
<title>13251545599885434518-&gt;9099831910955636207</title>
<path fill="none" stroke="black" d="M1801.65,-268.61C1680.98,-257.11 1506.79,-241.5 1354.17,-231.6 1213.02,-222.45 1057.93,-215.1 921.34,-209.55"/>
<polygon fill="black" stroke="black" points="921.51,-206.06 911.38,-209.15 921.23,-213.05 921.51,-206.06"/>
<text text-anchor="middle" x="1578.66" y="-235.8" font-family="Times,serif" font-size="14.00">east</text>
</g>
<!-- 13251545599885434518&#45;&gt;1510794897565342164 -->
<g id="edge46" class="edge">
<title>13251545599885434518-&gt;1510794897565342164</title>
<path fill="none" stroke="black" d="M1880.35,-266.5C1832.94,-255.57 1769.05,-241.57 1712.17,-231.6 1673.9,-224.89 1632.25,-218.76 1593.73,-213.57"/>
<polygon fill="black" stroke="black" points="1594.3,-210.12 1583.92,-212.27 1593.37,-217.06 1594.3,-210.12"/>
<text text-anchor="middle" x="1813.14" y="-235.8" font-family="Times,serif" font-size="14.00">south</text>
</g>
<!-- 17991163150029552498 -->
<g id="node23" class="node">
<title>17991163150029552498</title>
<ellipse fill="none" stroke="red" cx="2356.17" cy="-195.6" rx="301.73" ry="18"/>
<text text-anchor="middle" x="2356.17" y="-191.4" font-family="Times,serif" font-size="14.00">Twisty passages - You are in a maze of twisty little passages, all alike.: can</text>
</g>
<!-- 13251545599885434518&#45;&gt;17991163150029552498 -->
<g id="edge45" class="edge">
<title>13251545599885434518-&gt;17991163150029552498</title>
<path fill="none" stroke="black" d="M2029.26,-266.66C2097.12,-252.12 2195.4,-231.06 2266.47,-215.82"/>
<polygon fill="black" stroke="black" points="2267.11,-219.27 2276.16,-213.75 2265.64,-212.42 2267.11,-219.27"/>
<text text-anchor="middle" x="2204.72" y="-235.8" font-family="Times,serif" font-size="14.00">north</text>
</g>
<!-- 761285925978319400 -->
<g id="node24" class="node">
<title>761285925978319400</title>
<ellipse fill="none" stroke="black" cx="1938.17" cy="-195.6" rx="97.95" ry="18"/>
<text text-anchor="middle" x="1938.17" y="-191.4" font-family="Times,serif" font-size="14.00">761285925978319400</text>
</g>
<!-- 13251545599885434518&#45;&gt;761285925978319400 -->
<g id="edge47" class="edge">
<title>13251545599885434518-&gt;761285925978319400</title>
<path fill="none" stroke="black" d="M1948.61,-266.25C1946.85,-254.56 1944.49,-238.79 1942.46,-225.22"/>
<polygon fill="black" stroke="black" points="1945.95,-224.88 1941.01,-215.51 1939.03,-225.92 1945.95,-224.88"/>
<text text-anchor="middle" x="1958.67" y="-235.8" font-family="Times,serif" font-size="14.00">west</text>
</g>
<!-- 4222133561363487455&#45;&gt;1510794897565342164 -->
<g id="edge40" class="edge">
<title>4222133561363487455-&gt;1510794897565342164</title>
<path fill="none" stroke="black" d="M1209.48,-266.35C1258.95,-252.13 1329.56,-231.84 1381.88,-216.8"/>
<polygon fill="black" stroke="black" points="1382.65,-220.22 1391.29,-214.1 1380.71,-213.5 1382.65,-220.22"/>
<text text-anchor="middle" x="1339.11" y="-235.8" font-family="Times,serif" font-size="14.00">east</text>
</g>
<!-- 4222133561363487455&#45;&gt;761285925978319351 -->
<g id="edge39" class="edge">
<title>4222133561363487455-&gt;761285925978319351</title>
<path fill="none" stroke="black" d="M1138.01,-265.94C1123.73,-243.09 1104.5,-202.96 1125.62,-177.6 1149.5,-148.93 1224.47,-131.99 1301.54,-122.01"/>
<polygon fill="black" stroke="black" points="1301.93,-125.48 1311.42,-120.77 1301.06,-118.54 1301.93,-125.48"/>
<text text-anchor="middle" x="1140.4" y="-191.4" font-family="Times,serif" font-size="14.00">north</text>
</g>
<!-- 4222133561363487455&#45;&gt;4222133561363487455 -->
<g id="edge41" class="edge">
<title>4222133561363487455-&gt;4222133561363487455</title>
<path fill="none" stroke="black" d="M1421.03,-290.77C1442.93,-289.39 1456.5,-287.26 1456.5,-284.4 1456.5,-282.07 1447.54,-280.24 1432.44,-278.89"/>
<polygon fill="black" stroke="black" points="1432.77,-275.4 1422.54,-278.14 1432.25,-282.38 1432.77,-275.4"/>
<text text-anchor="middle" x="1471.67" y="-280.2" font-family="Times,serif" font-size="14.00">south</text>
</g>
<!-- 17991163150029552498&#45;&gt;14582385743654621973 -->
<g id="edge49" class="edge">
<title>17991163150029552498-&gt;14582385743654621973</title>
<path fill="none" stroke="black" d="M2354.71,-213.9C2350.4,-252.86 2334.07,-347.44 2275.17,-391.2 2242.65,-415.36 2052.24,-433.53 1880.56,-445.26"/>
<polygon fill="black" stroke="black" points="1880.53,-441.76 1870.79,-445.92 1881,-448.74 1880.53,-441.76"/>
<text text-anchor="middle" x="2340.44" y="-324.6" font-family="Times,serif" font-size="14.00">west</text>
</g>
</g>
</svg>