<svg width="4642pt" height="1460pt" viewBox="0.00 0.00 4641.79 1460.40" xmlns="http://www.w3.org/2000/svg" xmlns:xlink="http://www.w3.org/1999/xlink">
<g id="graph0" class="graph" transform="scale(1 1) rotate(0) translate(4 1456.4)">
<title>G</title>
<polygon fill="white" stroke="none" points="-4,4 -4,-1456.4 4637.79,-1456.4 4637.79,4 -4,4"/>
<g id="clust1" class="cluster">
<title>cluster_Dark_cave</title>
<polygon fill="lightblue" stroke="black" points="1166,-1078.4 1166,-1332.8 2744,-1332.8 2744,-1078.4 1166,-1078.4"/>
<text text-anchor="middle" x="1955" y="-1316.2" font-family="Times,serif" font-size="14.00">Dark_cave</text>
</g>
<g id="clust2" class="cluster">
<title>cluster_Twisty_passages</title>
<polygon fill="lightyellow" stroke="black" points="3149,-231.2 3149,-708.8 4576,-708.8 4576,-231.2 3149,-231.2"/>
<text text-anchor="middle" x="3862.5" y="-692.2" font-family="Times,serif" font-size="14.00">Twisty_passages</text>
</g>
<g id="clust3" class="cluster">
<title>cluster_custom_room</title>
<polygon fill="#c1ffc1" stroke="black" points="2393,-8 2393,-84.8 2801,-84.8 2801,-8 2393,-8"/>
<text text-anchor="middle" x="2597" y="-68.2" font-family="Times,serif" font-size="14.00">custom_room</text>
</g>
<g id="clust4" class="cluster">
<title>cluster_Foothills</title>
<polygon fill="lightpink" stroke="black" points="8,-1256 8,-1444.4 1158,-1444.4 1158,-1256 8,-1256"/>
<text text-anchor="middle" x="583" y="-1427.8" font-family="Times,serif" font-size="14.00">Foothills</text>
</g>
<g id="clust5" class="cluster">
<title>cluster_Moss_cavern</title>
<polygon fill="lightgray" stroke="black" points="767,-632 767,-820.4 3141,-820.4 3141,-632 767,-632"/>
<text text-anchor="middle" x="1954" y="-803.8" font-family="Times,serif" font-size="14.00">Moss_cavern</text>
</g>
<g id="clust6" class="cluster">
<title>cluster_Panicked_and_lost</title>
<polygon fill="lightblue" stroke="black" points="2209,-119.6 2209,-196.4 2985,-196.4 2985,-119.6 2209,-119.6"/>
<text text-anchor="middle" x="2597" y="-179.8" font-family="Times,serif" font-size="14.00">Panicked_and_lost</text>
</g>
<g id="clust7" class="cluster">
<title>cluster_Passage</title>
<polygon fill="lightyellow" stroke="black" points="1606,-431.6 1606,-597.2 3088,-597.2 3088,-431.6 1606,-431.6"/>
<text text-anchor="middle" x="2347" y="-580.6" font-family="Times,serif" font-size="14.00">Passage</text>
</g>
<g id="clust8" class="cluster">
<title>cluster_Falling_through_the_air</title>
<polygon fill="#c1ffc1" stroke="black" points="1176,-855.2 1176,-932 2732,-932 2732,-855.2 1176,-855.2"/>
<text text-anchor="middle" x="1954" y="-915.4" font-family="Times,serif" font-size="14.00">Falling_through_the_air</text>
</g>
<g id="clust9" class="cluster">
<title>cluster_Rope_bridge</title>
<polygon fill="lightpink" stroke="black" points="1414,-966.8 1414,-1043.6 2494,-1043.6 2494,-966.8 1414,-966.8"/>
<text text-anchor="middle" x="1954" y="-1027" font-family="Times,serif" font-size="14.00">Rope_bridge</text>
</g>
<g id="clust10" class="cluster">
<title>cluster_Fumbling_around_in_the_darkness</title>
<polygon fill="lightgray" stroke="black" points="2045,-231.2 2045,-396.8 3141,-396.8 3141,-231.2 2045,-231.2"/>
<text text-anchor="middle" x="2593" y="-380.2" font-family="Times,serif" font-size="14.00">Fumbling_around_in_the_darkness</text>
</g>
<!-- 8365075372895872953 -->
<g id="node1" class="node">
<title>8365075372895872953</title>
<polygon fill="none" stroke="green" stroke-width="3" points="1149.71,-1411.6 16.29,-1411.6 16.29,-1375.6 1149.71,-1375.6 1149.71,-1411.6"/>
<text text-anchor="middle" x="583" y="-1389.4" font-family="Times,serif" font-size="14.00">Foothills - You find yourself standing at the base of an enormous mountain.  At its base to the north, there is a massive doorway.  A sign nearby reads  Keep out!  Definitely no treasure within! : tablet</text>
</g>
<!-- 16121353451567468662 -->
<g id="node2" class="node">
<title>16121353451567468662</title>
<ellipse fill="none" stroke="black" cx="1752" cy="-1282" rx="578.48" ry="18"/>
<text text-anchor="middle" x="1752" y="-1277.8" font-family="Times,serif" font-size="14.00">Dark cave - This seems to be the mouth of a deep cave.  As you peer north into the darkness, you think you hear the echoes of bats deeper within.: </text>
</g>
<!-- 8365075372895872953&#45;&gt;16121353451567468662 -->
<g id="edge1" class="edge">
<title>8365075372895872953-&gt;16121353451567468662</title>
<path fill="none" stroke="black" d="M780.31,-1374.1C998.84,-1353.61 1348.6,-1320.82 1563.51,-1300.67"/>
<polygon fill="black" stroke="black" points="1563.78,-1304.16 1573.41,-1299.74 1563.13,-1297.19 1563.78,-1304.16"/>
<text text-anchor="middle" x="1156.94" y="-1345" font-family="Times,serif" font-size="14.00">doorway</text>
</g>
<!-- 5327607003674881416 -->
<g id="node3" class="node">
<title>5327607003674881416</title>
<ellipse fill="none" stroke="black" cx="583" cy="-1282" rx="341.44" ry="18"/>
<text text-anchor="middle" x="583" y="-1277.8" font-family="Times,serif" font-size="14.00">Foothills - As you begin to leave, you feel the urge for adventure pulling you back...: </text>
</g>
<!-- 8365075372895872953&#45;&gt;5327607003674881416 -->
<g id="edge2" class="edge">
<title>8365075372895872953-&gt;5327607003674881416</title>
<path fill="none" stroke="black" d="M565.78,-1374.27C562.05,-1369.23 558.64,-1363.51 556.66,-1357.6 551.37,-1341.77 557.04,-1324.16 564.45,-1310.03"/>
<polygon fill="black" stroke="black" points="567.27,-1312.14 569.26,-1301.74 561.22,-1308.63 567.27,-1312.14"/>
<text text-anchor="middle" x="571.83" y="-1345" font-family="Times,serif" font-size="14.00">south</text>
</g>
<!-- 16121353451567468662&#45;&gt;8365075372895872953 -->
<g id="edge4" class="edge">
<title>16121353451567468662-&gt;8365075372895872953</title>
<path fill="none" stroke="black" d="M1640.39,-1300.13C1526.23,-1317.06 1343.64,-1342.57 1185,-1357.6 1119.96,-1363.76 1050.86,-1369 983.55,-1373.4"/>
<polygon fill="black" stroke="black" points="983.59,-1369.89 973.83,-1374.02 984.04,-1376.87 983.59,-1369.89"/>
<text text-anchor="middle" x="1340.55" y="-1345" font-family="Times,serif" font-size="14.00">south</text>
</g>
<!-- 9944927317727569731 -->
<g id="node4" class="node">
<title>9944927317727569731</title>
<ellipse fill="none" stroke="black" cx="1699" cy="-1193.2" rx="420.53" ry="18"/>
<text text-anchor="middle" x="1699" y="-1189" font-family="Times,serif" font-size="14.00">Dark cave - The cave is somewhat narrow here, and the light from the doorway to the south is quite dim.: </text>
</g>
<!-- 16121353451567468662&#45;&gt;9944927317727569731 -->
<g id="edge3" class="edge">
<title>16121353451567468662-&gt;9944927317727569731</title>
<path fill="none" stroke="black" d="M1746.19,-1263.51C1742.35,-1253.13 1736.78,-1239.94 1730,-1229.2 1728.05,-1226.11 1725.83,-1223.03 1723.49,-1220.04"/>
<polygon fill="black" stroke="black" points="1726.37,-1218.03 1717.25,-1212.63 1721.01,-1222.54 1726.37,-1218.03"/>
<text text-anchor="middle" x="1753.52" y="-1233.4" font-family="Times,serif" font-size="14.00">north</text>
</g>
<!-- 5327607003674881416&#45;&gt;8365075372895872953 -->
<g id="edge9" class="edge">
<title>5327607003674881416-&gt;8365075372895872953</title>
<path fill="none" stroke="black" d="M585.03,-1300.49C586.52,-1315.61 588.11,-1338.05 587,-1357.6 586.9,-1359.28 586.78,-1361 586.64,-1362.74"/>
<polygon fill="black" stroke="black" points="583.17,-1362.3 585.66,-1372.6 590.13,-1363 583.17,-1362.3"/>
<text text-anchor="middle" x="602.15" y="-1345" font-family="Times,serif" font-size="14.00">north</text>
</g>
<!-- 9944927317727569731&#45;&gt;16121353451567468662 -->
<g id="edge6" class="edge">
<title>9944927317727569731-&gt;16121353451567468662</title>
<path fill="none" stroke="black" d="M1693.34,-1211.57C1690.95,-1222.16 1689.88,-1235.6 1695.66,-1246 1697.74,-1249.74 1700.41,-1253.14 1703.44,-1256.2"/>
<polygon fill="black" stroke="black" points="1701.14,-1258.84 1711.04,-1262.6 1705.65,-1253.48 1701.14,-1258.84"/>
<text text-anchor="middle" x="1710.83" y="-1233.4" font-family="Times,serif" font-size="14.00">south</text>
</g>
<!-- 10881724332527995136 -->
<g id="node5" class="node">
<title>10881724332527995136</title>
<ellipse fill="none" stroke="black" cx="1955" cy="-1104.4" rx="781.42" ry="18"/>
<text text-anchor="middle" x="1955" y="-1100.2" font-family="Times,serif" font-size="14.00">Dark cave - The cave acoustics dramatically change as you find yourself at a legde above a large chasm.  There is barely enough light here to notice a rope bridge leading out into the dark emptiness.: </text>
</g>
<!-- 9944927317727569731&#45;&gt;10881724332527995136 -->
<g id="edge5" class="edge">
<title>9944927317727569731-&gt;10881724332527995136</title>
<path fill="none" stroke="black" d="M1750.19,-1174.84C1791.35,-1160.89 1849.33,-1141.23 1893.1,-1126.39"/>
<polygon fill="black" stroke="black" points="1894.12,-1129.74 1902.47,-1123.21 1891.87,-1123.11 1894.12,-1129.74"/>
<text text-anchor="middle" x="1864.71" y="-1144.6" font-family="Times,serif" font-size="14.00">north</text>
</g>
<!-- 10881724332527995136&#45;&gt;16121353451567468662 -->
<g id="edge8" class="edge">
<title>10881724332527995136-&gt;16121353451567468662</title>
<path fill="none" stroke="black" d="M2033.64,-1122.8C2094.68,-1139.95 2163.59,-1169.61 2129,-1211.2 2107.83,-1236.65 2046.2,-1252.86 1978.75,-1263.17"/>
<polygon fill="black" stroke="black" points="1978.31,-1259.69 1968.93,-1264.62 1979.33,-1266.62 1978.31,-1259.69"/>
<text text-anchor="middle" x="2153.45" y="-1189" font-family="Times,serif" font-size="14.00">south</text>
</g>
<!-- 10632262804544610098 -->
<g id="node6" class="node">
<title>10632262804544610098</title>
<ellipse fill="none" stroke="black" cx="1954" cy="-992.8" rx="532.25" ry="18"/>
<text text-anchor="middle" x="1954" y="-988.6" font-family="Times,serif" font-size="14.00">Rope bridge - This rope bridge creaks as you walk along it.  You aren't sure how old it is, or whether it can even support your weight.: </text>
</g>
<!-- 10881724332527995136&#45;&gt;10632262804544610098 -->
<g id="edge7" class="edge">
<title>10881724332527995136-&gt;10632262804544610098</title>
<path fill="none" stroke="black" d="M1936.81,-1086.02C1932.51,-1080.81 1928.52,-1074.77 1926.23,-1068.4 1920.57,-1052.59 1926.54,-1034.98 1934.37,-1020.85"/>
<polygon fill="black" stroke="black" points="1937.23,-1022.88 1939.48,-1012.53 1931.26,-1019.22 1937.23,-1022.88"/>
<text text-anchor="middle" x="1944.12" y="-1055.8" font-family="Times,serif" font-size="14.00">bridge</text>
</g>
<!-- 10632262804544610098&#45;&gt;10881724332527995136 -->
<g id="edge11" class="edge">
<title>10632262804544610098-&gt;10881724332527995136</title>
<path fill="none" stroke="black" d="M1957.91,-1011.28C1960.81,-1026.39 1963.94,-1048.83 1962,-1068.4 1961.79,-1070.48 1961.52,-1072.63 1961.2,-1074.78"/>
<polygon fill="black" stroke="black" points="1957.77,-1074.1 1959.44,-1084.57 1964.65,-1075.34 1957.77,-1074.1"/>
<text text-anchor="middle" x="1975.81" y="-1055.8" font-family="Times,serif" font-size="14.00">back</text>
</g>
<!-- 698241318426060279 -->
<g id="node7" class="node">
<title>698241318426060279</title>
<ellipse fill="none" stroke="black" cx="1954" cy="-881.2" rx="770.29" ry="18"/>
<text text-anchor="middle" x="1954" y="-877" font-family="Times,serif" font-size="14.00">Falling through the air! - As you continue along the bridge, it snaps!  You try to grab the bridge, but it evades your grasp in the darkness.  You are plummeting quickly downward into the chasm...: </text>
</g>
<!-- 10632262804544610098&#45;&gt;698241318426060279 -->
<g id="edge10" class="edge">
<title>10632262804544610098-&gt;698241318426060279</title>
<path fill="none" stroke="black" d="M1954,-974.67C1954,-957.64 1954,-931.2 1954,-910.95"/>
<polygon fill="black" stroke="black" points="1957.5,-911.08 1954,-901.08 1950.5,-911.08 1957.5,-911.08"/>
<text text-anchor="middle" x="1978.1" y="-944.2" font-family="Times,serif" font-size="14.00">continue</text>
</g>
<!-- 5481805069169804605 -->
<g id="node8" class="node">
<title>5481805069169804605</title>
<ellipse fill="none" stroke="black" cx="1954" cy="-769.6" rx="872.39" ry="18"/>
<text text-anchor="middle" x="1954" y="-765.4" font-family="Times,serif" font-size="14.00">Moss cavern - You are standing in a large cavern full of bioluminescent moss.  It must have broken your fall!  The cavern extends to the east and west; at the west end, you think you see a passage leading out of the cavern.: </text>
</g>
<!-- 698241318426060279&#45;&gt;5481805069169804605 -->
<g id="edge12" class="edge">
<title>698241318426060279-&gt;5481805069169804605</title>
<path fill="none" stroke="black" d="M1954,-863.07C1954,-846.04 1954,-819.6 1954,-799.35"/>
<polygon fill="black" stroke="black" points="1957.5,-799.48 1954,-789.48 1950.5,-799.48 1957.5,-799.48"/>
<text text-anchor="middle" x="1969.56" y="-832.6" font-family="Times,serif" font-size="14.00">down</text>
</g>
<!-- 15525096771922237932 -->
<g id="node9" class="node">
<title>15525096771922237932</title>
<ellipse fill="none" stroke="black" cx="1447" cy="-658" rx="672.06" ry="18"/>
<text text-anchor="middle" x="1447" y="-653.8" font-family="Times,serif" font-size="14.00">Moss cavern - You are standing in a large cavern full of bioluminescent moss.  The cavern extends to the east.  There is a crevise in the rocks which opens into a passage.: </text>
</g>
<!-- 5481805069169804605&#45;&gt;15525096771922237932 -->
<g id="edge13" class="edge">
<title>5481805069169804605-&gt;15525096771922237932</title>
<path fill="none" stroke="black" d="M1866.02,-751.25C1838.56,-745.73 1808.16,-739.52 1780.34,-733.6 1696.27,-715.72 1600.55,-694.18 1533.32,-678.85"/>
<polygon fill="black" stroke="black" points="1534.36,-675.5 1523.84,-676.68 1532.81,-682.32 1534.36,-675.5"/>
<text text-anchor="middle" x="1793.17" y="-721" font-family="Times,serif" font-size="14.00">west</text>
</g>
<!-- 7631285671849925407 -->
<g id="node10" class="node">
<title>7631285671849925407</title>
<ellipse fill="none" stroke="green" stroke-width="3" cx="2635" cy="-658" rx="498.03" ry="18"/>
<text text-anchor="middle" x="2635" y="-653.8" font-family="Times,serif" font-size="14.00">Moss cavern - You are standing in a large cavern full of bioluminescent moss.  The cavern extends to the west.: empty lantern</text>
</g>
<!-- 5481805069169804605&#45;&gt;7631285671849925407 -->
<g id="edge14" class="edge">
<title>5481805069169804605-&gt;7631285671849925407</title>
<path fill="none" stroke="black" d="M2061.53,-751.29C2183.99,-731.59 2383.69,-699.45 2512.18,-678.77"/>
<polygon fill="black" stroke="black" points="2512.41,-682.27 2521.73,-677.23 2511.3,-675.36 2512.41,-682.27"/>
<text text-anchor="middle" x="2284.96" y="-721" font-family="Times,serif" font-size="14.00">east</text>
</g>
<!-- 15525096771922237932&#45;&gt;5481805069169804605 -->
<g id="edge15" class="edge">
<title>15525096771922237932-&gt;5481805069169804605</title>
<path fill="none" stroke="black" d="M1589.71,-676.06C1656.03,-685.49 1735.63,-698.97 1806,-716.8 1837.8,-724.86 1872.46,-736.81 1900.23,-747.2"/>
<polygon fill="black" stroke="black" points="1898.9,-750.44 1909.49,-750.71 1901.38,-743.89 1898.9,-750.44"/>
<text text-anchor="middle" x="1870.55" y="-721" font-family="Times,serif" font-size="14.00">east</text>
</g>
<!-- 17780436859688940574 -->
<g id="node11" class="node">
<title>17780436859688940574</title>
<ellipse fill="none" stroke="black" cx="2347" cy="-546.4" rx="732.65" ry="18"/>
<text text-anchor="middle" x="2347" y="-542.2" font-family="Times,serif" font-size="14.00">Passage - You are in a crevise on the west wall of the moss cavern.  A dark passage leads further west.  There is a ladder here which leads down into a smaller, moss-filled cavern below.: </text>
</g>
<!-- 15525096771922237932&#45;&gt;17780436859688940574 -->
<g id="edge16" class="edge">
<title>15525096771922237932-&gt;17780436859688940574</title>
<path fill="none" stroke="black" d="M1637.55,-640.29C1693.78,-634.93 1755.42,-628.65 1812,-622 1952.89,-605.43 2114.08,-582.39 2222.39,-566.32"/>
<polygon fill="black" stroke="black" points="2222.81,-569.8 2232.19,-564.86 2221.78,-562.87 2222.81,-569.8"/>
<text text-anchor="middle" x="1966.11" y="-609.4" font-family="Times,serif" font-size="14.00">passage</text>
</g>
<!-- 7631285671849925407&#45;&gt;5481805069169804605 -->
<g id="edge17" class="edge">
<title>7631285671849925407-&gt;5481805069169804605</title>
<path fill="none" stroke="black" d="M2564.56,-677.24C2497.09,-694.1 2392.21,-718.72 2300,-733.6 2258.96,-740.22 2214.97,-745.81 2172.59,-750.45"/>
<polygon fill="black" stroke="black" points="2172.34,-746.95 2162.77,-751.51 2173.09,-753.91 2172.34,-746.95"/>
<text text-anchor="middle" x="2396.16" y="-721" font-family="Times,serif" font-size="14.00">west</text>
</g>
<!-- 17780436859688940574&#45;&gt;15525096771922237932 -->
<g id="edge18" class="edge">
<title>17780436859688940574-&gt;15525096771922237932</title>
<path fill="none" stroke="black" d="M2150.62,-564.21C2039.03,-574.49 1896.84,-588.8 1770.7,-605.2 1699.09,-614.51 1618.95,-627.32 1556.32,-637.87"/>
<polygon fill="black" stroke="black" points="1556,-634.37 1546.73,-639.49 1557.17,-641.27 1556,-634.37"/>
<text text-anchor="middle" x="1789.35" y="-609.4" font-family="Times,serif" font-size="14.00">cavern</text>
</g>
<!-- 447285304303355626 -->
<g id="node12" class="node">
<title>447285304303355626</title>
<ellipse fill="none" stroke="black" cx="4014" cy="-658" rx="554.37" ry="18"/>
<text text-anchor="middle" x="4014" y="-653.8" font-family="Times,serif" font-size="14.00">Twisty passages - You are in a maze of twisty little passages, all dimly lit by more bioluminescent moss.  There is a ladder here leading up.: </text>
</g>
<!-- 17780436859688940574&#45;&gt;447285304303355626 -->
<g id="edge19" class="edge">
<title>17780436859688940574-&gt;447285304303355626</title>
<path fill="none" stroke="black" d="M2497.12,-564.5C2652.35,-581.58 2901.83,-607.33 3118.02,-622 3270.96,-632.38 3438.82,-639.95 3587.48,-645.34"/>
<polygon fill="black" stroke="black" points="3586.97,-648.82 3597.09,-645.69 3587.22,-641.83 3586.97,-648.82"/>
<text text-anchor="middle" x="3135.51" y="-609.4" font-family="Times,serif" font-size="14.00">ladder</text>
</g>
<!-- 3201119203588921637 -->
<g id="node13" class="node">
<title>3201119203588921637</title>
<ellipse fill="none" stroke="black" cx="2419" cy="-457.6" rx="262.04" ry="18"/>
<text text-anchor="middle" x="2419" y="-453.4" font-family="Times,serif" font-size="14.00">Passage - It is pitch black.  You are likely to be eaten by a grue.: </text>
</g>
<!-- 17780436859688940574&#45;&gt;3201119203588921637 -->
<g id="edge20" class="edge">
<title>17780436859688940574-&gt;3201119203588921637</title>
<path fill="none" stroke="black" d="M2343.07,-528.25C2341.57,-517.49 2341.55,-503.77 2348.01,-493.6 2350.74,-489.31 2354.16,-485.53 2358.02,-482.2"/>
<polygon fill="black" stroke="black" points="2359.82,-485.22 2365.84,-476.5 2355.7,-479.56 2359.82,-485.22"/>
<text text-anchor="middle" x="2372.51" y="-497.8" font-family="Times,serif" font-size="14.00">darkness</text>
</g>
<!-- 447285304303355626&#45;&gt;17780436859688940574 -->
<g id="edge30" class="edge">
<title>447285304303355626-&gt;17780436859688940574</title>
<path fill="none" stroke="black" d="M3612.03,-645.26C3289.01,-635.74 2885.93,-623.64 2867.02,-622 2724.12,-609.61 2560.54,-584.29 2455.62,-566.6"/>
<polygon fill="black" stroke="black" points="2456.32,-563.17 2445.88,-564.95 2455.15,-570.07 2456.32,-563.17"/>
<text text-anchor="middle" x="2884.51" y="-609.4" font-family="Times,serif" font-size="14.00">ladder</text>
</g>
<!-- 16281999036973417035 -->
<g id="node18" class="node">
<title>16281999036973417035</title>
<ellipse fill="none" stroke="black" cx="4216" cy="-346" rx="288.33" ry="18"/>
<text text-anchor="middle" x="4216" y="-341.8" font-family="Times,serif" font-size="14.00">Twisty passages - You are in a twisty maze of little passages, all alike.: </text>
</g>
<!-- 447285304303355626&#45;&gt;16281999036973417035 -->
<g id="edge31" class="edge">
<title>447285304303355626-&gt;16281999036973417035</title>
<path fill="none" stroke="black" d="M4374.95,-643.97C4422.96,-638.87 4458.92,-631.81 4468,-622 4496.26,-591.47 4483.11,-567.16 4468,-528.4 4464.05,-518.27 4455.4,-520.53 4451.45,-510.4 4448.74,-503.44 4448.45,-500.44 4451.45,-493.6 4456.19,-482.78 4466.26,-486.42 4471,-475.6 4478.86,-457.69 4482.45,-447.46 4471,-431.6 4446.81,-398.08 4408.8,-377.63 4369.45,-365.22"/>
<polygon fill="black" stroke="black" points="4370.64,-361.92 4360.05,-362.43 4368.65,-368.63 4370.64,-361.92"/>
<text text-anchor="middle" x="4466.22" y="-497.8" font-family="Times,serif" font-size="14.00">north</text>
</g>
<!-- 16672844538226992313 -->
<g id="node19" class="node">
<title>16672844538226992313</title>
<ellipse fill="none" stroke="black" cx="3924" cy="-257.2" rx="288.33" ry="18"/>
<text text-anchor="middle" x="3924" y="-253" font-family="Times,serif" font-size="14.00">Twisty passages - You are in a maze of little twisty passages, all alike.: </text>
</g>
<!-- 447285304303355626&#45;&gt;16672844538226992313 -->
<g id="edge32" class="edge">
<title>447285304303355626-&gt;16672844538226992313</title>
<path fill="none" stroke="black" d="M4363.5,-643.65C4426.16,-638.56 4475.89,-631.57 4489,-622 4597.33,-542.93 4646.49,-427.9 4557,-328 4530.21,-298.1 4330.08,-279.66 4161.91,-269.3"/>
<polygon fill="black" stroke="black" points="4162.33,-265.82 4152.14,-268.71 4161.91,-272.81 4162.33,-265.82"/>
<text text-anchor="middle" x="4618.62" y="-453.4" font-family="Times,serif" font-size="14.00">south</text>
</g>
<!-- 2916148824947368487 -->
<g id="node20" class="node">
<title>2916148824947368487</title>
<ellipse fill="none" stroke="black" cx="4107" cy="-546.4" rx="288.33" ry="18"/>
<text text-anchor="middle" x="4107" y="-542.2" font-family="Times,serif" font-size="14.00">Twisty passages - You are in a maze of alike little passages, all twisty.: </text>
</g>
<!-- 447285304303355626&#45;&gt;2916148824947368487 -->
<g id="edge33" class="edge">
<title>447285304303355626-&gt;2916148824947368487</title>
<path fill="none" stroke="black" d="M4020.34,-639.66C4024.69,-629.09 4031.15,-615.64 4039.23,-605.2 4048.82,-592.83 4061.41,-581.2 4073.14,-571.67"/>
<polygon fill="black" stroke="black" points="4074.99,-574.67 4080.69,-565.75 4070.66,-569.17 4074.99,-574.67"/>
<text text-anchor="middle" x="4050.12" y="-609.4" font-family="Times,serif" font-size="14.00">east</text>
</g>
<!-- 1172321899377142759 -->
<g id="node21" class="node">
<title>1172321899377142759</title>
<ellipse fill="none" stroke="black" cx="3465" cy="-546.4" rx="288.33" ry="18"/>
<text text-anchor="middle" x="3465" y="-542.2" font-family="Times,serif" font-size="14.00">Twisty passages - You are in a little maze of twisty passages, all alike.: </text>
</g>
<!-- 447285304303355626&#45;&gt;1172321899377142759 -->
<g id="edge34" class="edge">
<title>447285304303355626-&gt;1172321899377142759</title>
<path fill="none" stroke="black" d="M3927.61,-639.75C3827.54,-619.78 3663.18,-586.96 3559.7,-566.3"/>
<polygon fill="black" stroke="black" points="3560.61,-562.92 3550.12,-564.39 3559.24,-569.78 3560.61,-562.92"/>
<text text-anchor="middle" x="3849.25" y="-609.4" font-family="Times,serif" font-size="14.00">west</text>
</g>
<!-- 3201119203588921637&#45;&gt;17780436859688940574 -->
<g id="edge22" class="edge">
<title>3201119203588921637-&gt;17780436859688940574</title>
<path fill="none" stroke="black" d="M2414.39,-475.75C2410.88,-486.51 2405.24,-500.23 2397,-510.4 2393.88,-514.26 2390.22,-517.87 2386.34,-521.21"/>
<polygon fill="black" stroke="black" points="2384.5,-518.2 2378.77,-527.11 2388.81,-523.72 2384.5,-518.2"/>
<text text-anchor="middle" x="2419.95" y="-497.8" font-family="Times,serif" font-size="14.00">back</text>
</g>
<!-- 1205054496128142177 -->
<g id="node14" class="node">
<title>1205054496128142177</title>
<ellipse fill="none" stroke="black" cx="2593" cy="-346" rx="540.17" ry="18"/>
<text text-anchor="middle" x="2593" y="-341.8" font-family="Times,serif" font-size="14.00">Fumbling around in the darkness - Without a source of light, you have become hopelessly lost and are fumbling around in the darkness.: </text>
</g>
<!-- 3201119203588921637&#45;&gt;1205054496128142177 -->
<g id="edge21" class="edge">
<title>3201119203588921637-&gt;1205054496128142177</title>
<path fill="none" stroke="black" d="M2446.57,-439.23C2476.01,-420.69 2522.84,-391.19 2555.59,-370.56"/>
<polygon fill="black" stroke="black" points="2557.39,-373.56 2563.99,-365.27 2553.66,-367.64 2557.39,-373.56"/>
<text text-anchor="middle" x="2524.89" y="-409" font-family="Times,serif" font-size="14.00">continue</text>
</g>
<!-- 14782744812977174805 -->
<g id="node15" class="node">
<title>14782744812977174805</title>
<ellipse fill="none" stroke="black" cx="2597" cy="-257.2" rx="523.96" ry="18"/>
<text text-anchor="middle" x="2597" y="-253" font-family="Times,serif" font-size="14.00">Fumbling around in the darkness - You can't seem to find your way.  However, you do think you hear low growling in the distance.: </text>
</g>
<!-- 1205054496128142177&#45;&gt;14782744812977174805 -->
<g id="edge23" class="edge">
<title>1205054496128142177-&gt;14782744812977174805</title>
<path fill="none" stroke="black" d="M2556.07,-327.74C2542.06,-318.63 2531.12,-306.58 2538.69,-293.2 2540.88,-289.32 2543.7,-285.83 2546.9,-282.69"/>
<polygon fill="black" stroke="black" points="2548.86,-285.61 2554.37,-276.55 2544.42,-280.2 2548.86,-285.61"/>
<text text-anchor="middle" x="2560.84" y="-297.4" font-family="Times,serif" font-size="14.00">forward</text>
</g>
<!-- 1205054496128142177&#45;&gt;14782744812977174805 -->
<g id="edge24" class="edge">
<title>1205054496128142177-&gt;14782744812977174805</title>
<path fill="none" stroke="black" d="M2593.79,-327.85C2594.33,-316.16 2595.06,-300.39 2595.68,-286.82"/>
<polygon fill="black" stroke="black" points="2599.16,-287.27 2596.13,-277.12 2592.17,-286.95 2599.16,-287.27"/>
<text text-anchor="middle" x="2608.57" y="-297.4" font-family="Times,serif" font-size="14.00">back</text>
</g>
<!-- 15534820594753379670 -->
<g id="node16" class="node">
<title>15534820594753379670</title>
<ellipse fill="none" stroke="black" cx="2597" cy="-145.6" rx="379.78" ry="18"/>
<text text-anchor="middle" x="2597" y="-141.4" font-family="Times,serif" font-size="14.00">Panicked and lost - The growling is getting louder.  Did I mention there are Grues down here?: </text>
</g>
<!-- 14782744812977174805&#45;&gt;15534820594753379670 -->
<g id="edge25" class="edge">
<title>14782744812977174805-&gt;15534820594753379670</title>
<path fill="none" stroke="black" d="M2584.92,-238.79C2581.83,-233.4 2578.93,-227.27 2577.34,-221.2 2573.3,-205.76 2577.28,-188.53 2582.69,-174.53"/>
<polygon fill="black" stroke="black" points="2585.85,-176.04 2586.61,-165.47 2579.42,-173.26 2585.85,-176.04"/>
<text text-anchor="middle" x="2586.67" y="-208.6" font-family="Times,serif" font-size="14.00">run</text>
</g>
<!-- 14782744812977174805&#45;&gt;15534820594753379670 -->
<g id="edge26" class="edge">
<title>14782744812977174805-&gt;15534820594753379670</title>
<path fill="none" stroke="black" d="M2597,-239.07C2597,-222.04 2597,-195.6 2597,-175.35"/>
<polygon fill="black" stroke="black" points="2600.5,-175.48 2597,-165.48 2593.5,-175.48 2600.5,-175.48"/>
<text text-anchor="middle" x="2627.32" y="-208.6" font-family="Times,serif" font-size="14.00">investigate</text>
</g>
<!-- 4977485675245027615 -->
<g id="node17" class="node">
<title>4977485675245027615</title>
<ellipse fill="none" stroke="red" stroke-width="3" cx="2597" cy="-34" rx="196.33" ry="18"/>
<text text-anchor="middle" x="2597" y="-29.8" font-family="Times,serif" font-size="14.00">custom room - You have been eaten by a grue.: </text>
</g>
<!-- 15534820594753379670&#45;&gt;4977485675245027615 -->
<g id="edge27" class="edge">
<title>15534820594753379670-&gt;4977485675245027615</title>
<path fill="none" stroke="black" d="M2570.17,-127.32C2564.58,-122.33 2559.44,-116.37 2556.34,-109.6 2553.22,-102.81 2554.08,-99.92 2556.34,-92.8 2559.8,-81.86 2566.16,-71.2 2572.84,-62.08"/>
<polygon fill="black" stroke="black" points="2575.46,-64.4 2578.87,-54.37 2569.95,-60.09 2575.46,-64.4"/>
<text text-anchor="middle" x="2565.67" y="-97" font-family="Times,serif" font-size="14.00">run</text>
</g>
<!-- 15534820594753379670&#45;&gt;4977485675245027615 -->
<g id="edge28" class="edge">
<title>15534820594753379670-&gt;4977485675245027615</title>
<path fill="none" stroke="black" d="M2597,-127.47C2597,-110.74 2597,-84.93 2597,-64.83"/>
<polygon fill="black" stroke="black" points="2600.5,-64.98 2597,-54.98 2593.5,-64.98 2600.5,-64.98"/>
<text text-anchor="middle" x="2609.05" y="-97" font-family="Times,serif" font-size="14.00">wait</text>
</g>
<!-- 15534820594753379670&#45;&gt;4977485675245027615 -->
<g id="edge29" class="edge">
<title>15534820594753379670-&gt;4977485675245027615</title>
<path fill="none" stroke="black" d="M2612.58,-127.25C2616.41,-121.95 2619.99,-115.86 2622,-109.6 2626.92,-94.26 2622,-77.22 2615.26,-63.3"/>
<polygon fill="black" stroke="black" points="2618.44,-61.82 2610.61,-54.68 2612.28,-65.14 2618.44,-61.82"/>
<text text-anchor="middle" x="2636.03" y="-97" font-family="Times,serif" font-size="14.00">hide</text>
</g>
<!-- 16281999036973417035&#45;&gt;447285304303355626 -->
<g id="edge54" class="edge">
<title>16281999036973417035-&gt;447285304303355626</title>
<path fill="none" stroke="black" d="M4353.54,-362.2C4390.24,-370.75 4428.43,-384.07 4460,-404.8 4472.42,-412.96 4475.2,-417.53 4480,-431.6 4493.66,-471.65 4509,-592.16 4479,-622 4469.78,-631.17 4435.92,-637.94 4390.37,-642.94"/>
<polygon fill="black" stroke="black" points="4390.28,-639.43 4380.69,-643.95 4391,-646.39 4390.28,-639.43"/>
<text text-anchor="middle" x="4509.53" y="-497.8" font-family="Times,serif" font-size="14.00">south</text>
</g>
<!-- 16281999036973417035&#45;&gt;16281999036973417035 -->
<g id="edge55" class="edge">
<title>16281999036973417035-&gt;16281999036973417035</title>
<path fill="none" stroke="black" d="M4486.86,-352.37C4508.76,-350.99 4522.33,-348.86 4522.33,-346 4522.33,-343.67 4513.37,-341.84 4498.26,-340.49"/>
<polygon fill="black" stroke="black" points="4498.6,-337 4488.37,-339.74 4498.08,-343.98 4498.6,-337"/>
<text text-anchor="middle" x="4535.16" y="-341.8" font-family="Times,serif" font-size="14.00">west</text>
</g>
<!-- 16281999036973417035&#45;&gt;16672844538226992313 -->
<g id="edge53" class="edge">
<title>16281999036973417035-&gt;16672844538226992313</title>
<path fill="none" stroke="black" d="M4082.24,-329.64C4057.93,-324.77 4033.11,-318.38 4010.45,-310 3991.56,-303.01 3972.18,-291.84 3956.57,-281.65"/>
<polygon fill="black" stroke="black" points="3958.88,-278.99 3948.63,-276.33 3954.98,-284.8 3958.88,-278.99"/>
<text text-anchor="middle" x="4025.22" y="-297.4" font-family="Times,serif" font-size="14.00">north</text>
</g>
<!-- 16672844538226992313&#45;&gt;447285304303355626 -->
<g id="edge45" class="edge">
<title>16672844538226992313-&gt;447285304303355626</title>
<path fill="none" stroke="black" d="M3663.18,-265.09C3487.32,-270.85 3280.28,-280.22 3240,-293.2 3212.82,-301.96 3200.78,-303.57 3186,-328 3167.35,-358.84 3159.34,-587.9 3168,-597.2 3194.63,-625.78 3344.57,-640.94 3511,-648.9"/>
<polygon fill="black" stroke="black" points="3510.83,-652.39 3520.99,-649.36 3511.16,-645.4 3510.83,-652.39"/>
<text text-anchor="middle" x="3183.89" y="-453.4" font-family="Times,serif" font-size="14.00">north</text>
</g>
<!-- 16672844538226992313&#45;&gt;16281999036973417035 -->
<g id="edge46" class="edge">
<title>16672844538226992313-&gt;16281999036973417035</title>
<path fill="none" stroke="black" d="M3981.21,-275.21C4028.99,-289.41 4097.21,-309.69 4147.82,-324.73"/>
<polygon fill="black" stroke="black" points="4146.63,-328.03 4157.21,-327.52 4148.62,-321.32 4146.63,-328.03"/>
<text text-anchor="middle" x="4111.32" y="-297.4" font-family="Times,serif" font-size="14.00">south</text>
</g>
<!-- 16672844538226992313&#45;&gt;16672844538226992313 -->
<g id="edge47" class="edge">
<title>16672844538226992313-&gt;16672844538226992313</title>
<path fill="none" stroke="black" d="M4194.86,-263.57C4216.76,-262.19 4230.33,-260.06 4230.33,-257.2 4230.33,-254.87 4221.37,-253.04 4206.26,-251.69"/>
<polygon fill="black" stroke="black" points="4206.6,-248.2 4196.37,-250.94 4206.08,-255.18 4206.6,-248.2"/>
<text text-anchor="middle" x="4241.21" y="-253" font-family="Times,serif" font-size="14.00">east</text>
</g>
<!-- 2916148824947368487&#45;&gt;447285304303355626 -->
<g id="edge40" class="edge">
<title>2916148824947368487-&gt;447285304303355626</title>
<path fill="none" stroke="black" d="M4098.77,-564.64C4090.61,-580.62 4077.03,-604.5 4061,-622 4057.58,-625.73 4053.72,-629.33 4049.71,-632.71"/>
<polygon fill="black" stroke="black" points="4047.7,-629.85 4042.02,-638.79 4052.04,-635.34 4047.7,-629.85"/>
<text text-anchor="middle" x="4085.9" y="-609.4" font-family="Times,serif" font-size="14.00">west</text>
</g>
<!-- 2916148824947368487&#45;&gt;1205054496128142177 -->
<g id="edge41" class="edge">
<title>2916148824947368487-&gt;1205054496128142177</title>
<path fill="none" stroke="black" d="M3900.5,-533.51C3870.15,-531.78 3839.26,-530.04 3810,-528.4 3658.94,-519.96 3266.05,-544.26 3131.23,-475.6 3107.89,-463.71 3114.93,-444.28 3092,-431.6 3037.99,-401.72 2892.98,-379.16 2773.11,-364.88"/>
<polygon fill="black" stroke="black" points="2773.81,-361.44 2763.47,-363.74 2772.99,-368.39 2773.81,-361.44"/>
<text text-anchor="middle" x="3142.12" y="-453.4" font-family="Times,serif" font-size="14.00">east</text>
</g>
<!-- 2916148824947368487&#45;&gt;2916148824947368487 -->
<g id="edge39" class="edge">
<title>2916148824947368487-&gt;2916148824947368487</title>
<path fill="none" stroke="black" d="M4377.86,-552.77C4399.76,-551.39 4413.33,-549.26 4413.33,-546.4 4413.33,-544.07 4404.37,-542.24 4389.26,-540.89"/>
<polygon fill="black" stroke="black" points="4389.6,-537.4 4379.37,-540.14 4389.08,-544.38 4389.6,-537.4"/>
<text text-anchor="middle" x="4428.5" y="-542.2" font-family="Times,serif" font-size="14.00">south</text>
</g>
<!-- 16178787705536214282 -->
<g id="node23" class="node">
<title>16178787705536214282</title>
<ellipse fill="none" stroke="black" cx="4125" cy="-457.6" rx="288.33" ry="18"/>
<text text-anchor="middle" x="4125" y="-453.4" font-family="Times,serif" font-size="14.00">Twisty passages - You are in a maze of alike twisty passages, all little.: </text>
</g>
<!-- 2916148824947368487&#45;&gt;16178787705536214282 -->
<g id="edge38" class="edge">
<title>2916148824947368487-&gt;16178787705536214282</title>
<path fill="none" stroke="black" d="M4110.56,-528.25C4112.98,-516.56 4116.25,-500.79 4119.07,-487.22"/>
<polygon fill="black" stroke="black" points="4122.48,-487.99 4121.08,-477.49 4115.62,-486.57 4122.48,-487.99"/>
<text text-anchor="middle" x="4132.39" y="-497.8" font-family="Times,serif" font-size="14.00">north</text>
</g>
<!-- 1172321899377142759&#45;&gt;447285304303355626 -->
<g id="edge37" class="edge">
<title>1172321899377142759-&gt;447285304303355626</title>
<path fill="none" stroke="black" d="M3516.77,-564.48C3569.82,-581.38 3654.97,-606.86 3730.23,-622 3763.5,-628.69 3799.23,-634.3 3833.74,-638.93"/>
<polygon fill="black" stroke="black" points="3833.02,-642.37 3843.39,-640.21 3833.93,-635.43 3833.02,-642.37"/>
<text text-anchor="middle" x="3741.12" y="-609.4" font-family="Times,serif" font-size="14.00">east</text>
</g>
<!-- 1172321899377142759&#45;&gt;1172321899377142759 -->
<g id="edge35" class="edge">
<title>1172321899377142759-&gt;1172321899377142759</title>
<path fill="none" stroke="black" d="M3735.86,-552.77C3757.76,-551.39 3771.33,-549.26 3771.33,-546.4 3771.33,-544.07 3762.37,-542.24 3747.26,-540.89"/>
<polygon fill="black" stroke="black" points="3747.6,-537.4 3737.37,-540.14 3747.08,-544.38 3747.6,-537.4"/>
<text text-anchor="middle" x="3786.11" y="-542.2" font-family="Times,serif" font-size="14.00">north</text>
</g>
<!-- 12469004508810770635 -->
<g id="node22" class="node">
<title>12469004508810770635</title>
<ellipse fill="none" stroke="black" cx="3511" cy="-457.6" rx="288.33" ry="18"/>
<text text-anchor="middle" x="3511" y="-453.4" font-family="Times,serif" font-size="14.00">Twisty passages - You are in a twisty alike of little passages, all maze.: </text>
</g>
<!-- 1172321899377142759&#45;&gt;12469004508810770635 -->
<g id="edge36" class="edge">
<title>1172321899377142759-&gt;12469004508810770635</title>
<path fill="none" stroke="black" d="M3474.09,-528.25C3480.47,-516.2 3489.15,-499.83 3496.48,-485.99"/>
<polygon fill="black" stroke="black" points="3499.47,-487.82 3501.06,-477.35 3493.29,-484.54 3499.47,-487.82"/>
<text text-anchor="middle" x="3507.29" y="-497.8" font-family="Times,serif" font-size="14.00">south</text>
</g>
<!-- 12469004508810770635&#45;&gt;1205054496128142177 -->
<g id="edge51" class="edge">
<title>12469004508810770635-&gt;1205054496128142177</title>
<path fill="none" stroke="black" d="M3309.14,-444.39C3263.12,-439.25 3214.69,-431.96 3170.23,-421.6 3149.35,-416.73 3145.87,-409.73 3125,-404.8 3041.06,-384.98 2948.05,-371.93 2863.57,-363.35"/>
<polygon fill="black" stroke="black" points="2864.05,-359.88 2853.75,-362.37 2863.35,-366.85 2864.05,-359.88"/>
<text text-anchor="middle" x="3181.12" y="-409" font-family="Times,serif" font-size="14.00">east</text>
</g>
<!-- 12469004508810770635&#45;&gt;16281999036973417035 -->
<g id="edge49" class="edge">
<title>12469004508810770635-&gt;16281999036973417035</title>
<path fill="none" stroke="black" d="M3622.26,-440.58C3703.22,-428.81 3815.47,-412.23 3914,-396.8 3978.35,-386.72 4050.32,-374.88 4107.85,-365.27"/>
<polygon fill="black" stroke="black" points="4108.38,-368.73 4117.67,-363.63 4107.23,-361.82 4108.38,-368.73"/>
<text text-anchor="middle" x="3874.41" y="-409" font-family="Times,serif" font-size="14.00">south</text>
</g>
<!-- 12469004508810770635&#45;&gt;16672844538226992313 -->
<g id="edge50" class="edge">
<title>12469004508810770635-&gt;16672844538226992313</title>
<path fill="none" stroke="black" d="M3342.92,-442.6C3282.26,-433.77 3224.07,-419.55 3205.34,-396.8 3185.9,-373.19 3184.79,-350.64 3205.34,-328 3236.31,-293.87 3468.89,-275.92 3661.2,-266.82"/>
<polygon fill="black" stroke="black" points="3661.31,-270.32 3671.13,-266.36 3660.98,-263.33 3661.31,-270.32"/>
<text text-anchor="middle" x="3218.17" y="-341.8" font-family="Times,serif" font-size="14.00">west</text>
</g>
<!-- 18396888397680678906 -->
<g id="node24" class="node">
<title>18396888397680678906</title>
<ellipse fill="none" stroke="green" stroke-width="3" cx="3542" cy="-346" rx="301.73" ry="18"/>
<text text-anchor="middle" x="3542" y="-341.8" font-family="Times,serif" font-size="14.00">Twisty passages - You are in a maze of twisty little passages, all alike.: can</text>
</g>
<!-- 12469004508810770635&#45;&gt;18396888397680678906 -->
<g id="edge48" class="edge">
<title>12469004508810770635-&gt;18396888397680678906</title>
<path fill="none" stroke="black" d="M3515.84,-439.47C3520.6,-422.67 3527.95,-396.69 3533.64,-376.54"/>
<polygon fill="black" stroke="black" points="3537.01,-377.5 3536.36,-366.92 3530.27,-375.59 3537.01,-377.5"/>
<text text-anchor="middle" x="3540.35" y="-409" font-family="Times,serif" font-size="14.00">north</text>
</g>
<!-- 16178787705536214282&#45;&gt;16281999036973417035 -->
<g id="edge43" class="edge">
<title>16178787705536214282-&gt;16281999036973417035</title>
<path fill="none" stroke="black" d="M4139.22,-439.47C4153.96,-421.72 4177.18,-393.75 4194.23,-373.21"/>
<polygon fill="black" stroke="black" points="4196.92,-375.46 4200.61,-365.53 4191.53,-370.99 4196.92,-375.46"/>
<text text-anchor="middle" x="4178.65" y="-409" font-family="Times,serif" font-size="14.00">east</text>
</g>
<!-- 16178787705536214282&#45;&gt;16672844538226992313 -->
<g id="edge42" class="edge">
<title>16178787705536214282-&gt;16672844538226992313</title>
<path fill="none" stroke="black" d="M4008.71,-440.7C3957.28,-431.05 3904.93,-416.7 3889.45,-396.8 3864,-364.09 3886.5,-315.02 3905.19,-284.9"/>
<polygon fill="black" stroke="black" points="3907.99,-287.02 3910.49,-276.72 3902.11,-283.21 3907.99,-287.02"/>
<text text-anchor="middle" x="3904.22" y="-341.8" font-family="Times,serif" font-size="14.00">north</text>
</g>
<!-- 16178787705536214282&#45;&gt;16178787705536214282 -->
<g id="edge44" class="edge">
<title>16178787705536214282-&gt;16178787705536214282</title>
<path fill="none" stroke="black" d="M4395.86,-463.97C4417.76,-462.59 4431.33,-460.46 4431.33,-457.6 4431.33,-455.27 4422.37,-453.44 4407.26,-452.09"/>
<polygon fill="black" stroke="black" points="4407.6,-448.6 4397.37,-451.34 4407.08,-455.58 4407.6,-448.6"/>
<text text-anchor="middle" x="4446.5" y="-453.4" font-family="Times,serif" font-size="14.00">south</text>
</g>
<!-- 18396888397680678906&#45;&gt;447285304303355626 -->
<g id="edge52" class="edge">
<title>18396888397680678906-&gt;447285304303355626</title>
<path fill="none" stroke="black" d="M3664.65,-363.79C3713.92,-375.8 3768.32,-396.37 3808,-431.6 3824.06,-445.86 3810.27,-463.47 3828,-475.6 3857.67,-495.89 4115.19,-490.54 4151,-493.6 4184.66,-496.47 4430.52,-503.19 4453,-528.4 4463.17,-539.81 4463.05,-585.68 4453,-597.2 4437.46,-615 4335.67,-629.49 4234.02,-639.75"/>
<polygon fill="black" stroke="black" points="4233.71,-636.26 4224.1,-640.74 4234.4,-643.23 4233.71,-636.26"/>
<text text-anchor="middle" x="4397.05" y="-497.8" font-family="Times,serif" font-size="14.00">west</text>
</g>
</g>
</svg>