<svg width="3854pt" height="502pt" viewBox="0.00 0.00 3854.00 501.60" xmlns="http://www.w3.org/2000/svg" xmlns:xlink="http://www.w3.org/1999/xlink">
<g id="graph0" class="graph" transform="scale(1 1) rotate(0) translate(4 497.6)">
<title>G</title>
<polygon fill="white" stroke="none" points="-4,4 -4,-497.6 3850,-497.6 3850,4 -4,4"/>
<g id="clust1" class="cluster">
<title>cluster_Dark_passage</title>
<polygon fill="lightblue" stroke="black" points="2878,-208.4 2878,-374 3838,-374 3838,-208.4 2878,-208.4"/>
<text text-anchor="middle" x="3358" y="-357.4" font-family="Times,serif" font-size="14.00">Dark_passage</text>
</g>
<g id="clust2" class="cluster">
<title>cluster_Ruins</title>
<polygon fill="lightyellow" stroke="black" points="8,-8 8,-485.6 2870,-485.6 2870,-8 8,-8"/>
<text text-anchor="middle" x="1439" y="-469" font-family="Times,serif" font-size="14.00">Ruins</text>
</g>
<g id="clust3" class="cluster">
<title>cluster_custom_room</title>
<polygon fill="#c1ffc1" stroke="black" points="2878,-96.8 2878,-173.6 3336,-173.6 3336,-96.8 2878,-96.8"/>
<text text-anchor="middle" x="3107" y="-157" font-family="Times,serif" font-size="14.00">custom_room</text>
</g>
<!-- 7964285518996818913 -->
<g id="node1" class="node">
<title>7964285518996818913</title>
<polygon fill="none" stroke="black" points="2812,-452.8 1370,-452.8 1370,-416.8 2812,-416.8 2812,-452.8"/>
<text text-anchor="middle" x="2091" y="-430.6" font-family="Times,serif" font-size="14.00">Ruins - You stand in a large cavern with a huge ruin to the north, overgrown by plant life.  There is a large stone archway to the north acting as the doorway to the ruined complex.  A crevice in the rock to the east leads to an alarmingly dark passageway.: </text>
</g>
<!-- 573460502344791819 -->
<g id="node2" class="node">
<title>573460502344791819</title>
<ellipse fill="none" stroke="black" cx="3358" cy="-323.2" rx="472.28" ry="18"/>
<text text-anchor="middle" x="3358" y="-319" font-family="Times,serif" font-size="14.00">Dark passage - You are in a dark, narrow passage.  To the west, you spot some vegetation where the passage expands.: </text>
</g>
<!-- 7964285518996818913&#45;&gt;573460502344791819 -->
<g id="edge1" class="edge">
<title>7964285518996818913-&gt;573460502344791819</title>
<path fill="none" stroke="black" d="M2300.49,-416.3C2428.84,-405.81 2596.49,-392.51 2745.23,-382 2802.43,-377.96 2816.85,-378.71 2874,-374 2983.21,-364.99 3106.02,-352.33 3200.61,-342.02"/>
<polygon fill="black" stroke="black" points="3200.94,-345.51 3210.5,-340.94 3200.18,-338.55 3200.94,-345.51"/>
<text text-anchor="middle" x="2756.12" y="-386.2" font-family="Times,serif" font-size="14.00">east</text>
</g>
<!-- 1817048037341349194 -->
<g id="node3" class="node">
<title>1817048037341349194</title>
<ellipse fill="none" stroke="green" stroke-width="3" cx="1906" cy="-323.2" rx="766.22" ry="18"/>
<text text-anchor="middle" x="1906" y="-319" font-family="Times,serif" font-size="14.00">Ruins - You are in the once-opulent foyer of a massive ruined complex.  There is a door to the south leading to the overgrowth outside and stairs to the north which lead into a larger hall.: red coin</text>
</g>
<!-- 7964285518996818913&#45;&gt;1817048037341349194 -->
<g id="edge2" class="edge">
<title>7964285518996818913-&gt;1817048037341349194</title>
<path fill="none" stroke="black" d="M2030.52,-416.32C2017.55,-411.48 2004.22,-405.64 1992.45,-398.8 1969.83,-385.65 1947.55,-366.23 1931.28,-350.5"/>
<polygon fill="black" stroke="black" points="1934,-348.26 1924.42,-343.73 1929.08,-353.24 1934,-348.26"/>
<text text-anchor="middle" x="2007.22" y="-386.2" font-family="Times,serif" font-size="14.00">north</text>
</g>
<!-- 573460502344791819&#45;&gt;7964285518996818913 -->
<g id="edge4" class="edge">
<title>573460502344791819-&gt;7964285518996818913</title>
<path fill="none" stroke="black" d="M3243.87,-341.15C3125.03,-358.19 2933.36,-384.01 2767,-398.8 2691.12,-405.54 2610.32,-411.12 2531.96,-415.68"/>
<polygon fill="black" stroke="black" points="2532.21,-412.16 2522.43,-416.23 2532.61,-419.15 2532.21,-412.16"/>
<text text-anchor="middle" x="2942.56" y="-386.2" font-family="Times,serif" font-size="14.00">west</text>
</g>
<!-- 11496586808095848673 -->
<g id="node4" class="node">
<title>11496586808095848673</title>
<ellipse fill="none" stroke="black" cx="3358" cy="-234.4" rx="210" ry="18"/>
<text text-anchor="middle" x="3358" y="-230.2" font-family="Times,serif" font-size="14.00">Dark passage - You are in a dark, narrow passage.: </text>
</g>
<!-- 573460502344791819&#45;&gt;11496586808095848673 -->
<g id="edge3" class="edge">
<title>573460502344791819-&gt;11496586808095848673</title>
<path fill="none" stroke="black" d="M3344.64,-304.95C3341.22,-299.56 3338,-293.39 3336.23,-287.2 3334.18,-280.02 3334.18,-277.58 3336.23,-270.4 3336.98,-267.79 3337.98,-265.18 3339.15,-262.63"/>
<polygon fill="black" stroke="black" points="3342.16,-264.43 3343.91,-253.98 3336.03,-261.05 3342.16,-264.43"/>
<text text-anchor="middle" x="3347.12" y="-274.6" font-family="Times,serif" font-size="14.00">east</text>
</g>
<!-- 1817048037341349194&#45;&gt;7964285518996818913 -->
<g id="edge8" class="edge">
<title>1817048037341349194-&gt;7964285518996818913</title>
<path fill="none" stroke="black" d="M1947.51,-342.64C1970.08,-353.21 1998.16,-367.28 2022,-382 2035.28,-390.2 2049.17,-400.3 2060.98,-409.4"/>
<polygon fill="black" stroke="black" points="2058.74,-412.08 2068.77,-415.49 2063.05,-406.57 2058.74,-412.08"/>
<text text-anchor="middle" x="2060.75" y="-386.2" font-family="Times,serif" font-size="14.00">south</text>
</g>
<!-- 3685013442293252759 -->
<g id="node5" class="node">
<title>3685013442293252759</title>
<ellipse fill="none" stroke="black" cx="1818" cy="-234.4" rx="1044.04" ry="18"/>
<text text-anchor="middle" x="1818" y="-230.2" font-family="Times,serif" font-size="14.00">Ruins - You stand in the massive central hall of these ruins.  The walls are crumbling, and vegetation has clearly taken over.  Rooms are attached in all directions.  There is a strange monument in the center of the hall with circular slots and unusual symbols.  It reads:: </text>
</g>
<!-- 1817048037341349194&#45;&gt;3685013442293252759 -->
<g id="edge7" class="edge">
<title>1817048037341349194-&gt;3685013442293252759</title>
<path fill="none" stroke="black" d="M1855.02,-303.77C1847.36,-299.27 1840.14,-293.8 1834.45,-287.2 1828.69,-280.52 1824.94,-271.81 1822.5,-263.44"/>
<polygon fill="black" stroke="black" points="1825.97,-262.88 1820.28,-253.94 1819.15,-264.48 1825.97,-262.88"/>
<text text-anchor="middle" x="1849.22" y="-274.6" font-family="Times,serif" font-size="14.00">north</text>
</g>
<!-- 11496586808095848673&#45;&gt;573460502344791819 -->
<g id="edge6" class="edge">
<title>11496586808095848673-&gt;573460502344791819</title>
<path fill="none" stroke="black" d="M3358,-252.81C3358,-264.56 3358,-280.34 3358,-293.88"/>
<polygon fill="black" stroke="black" points="3354.5,-293.54 3358,-303.54 3361.5,-293.54 3354.5,-293.54"/>
<text text-anchor="middle" x="3370.83" y="-274.6" font-family="Times,serif" font-size="14.00">west</text>
</g>
<!-- 11496586808095848673&#45;&gt;11496586808095848673 -->
<g id="edge5" class="edge">
<title>11496586808095848673-&gt;11496586808095848673</title>
<path fill="none" stroke="black" d="M3553.4,-241.24C3573.3,-239.89 3586,-237.61 3586,-234.4 3586,-231.84 3577.93,-229.88 3564.59,-228.5"/>
<polygon fill="black" stroke="black" points="3565.17,-225.03 3554.91,-227.68 3564.58,-232.01 3565.17,-225.03"/>
<text text-anchor="middle" x="3596.88" y="-230.2" font-family="Times,serif" font-size="14.00">east</text>
</g>
<!-- 3685013442293252759&#45;&gt;1817048037341349194 -->
<g id="edge10" class="edge">
<title>3685013442293252759-&gt;1817048037341349194</title>
<path fill="none" stroke="black" d="M1843.24,-252.89C1850.24,-258.2 1857.66,-264.25 1864,-270.4 1871.73,-277.9 1879.39,-286.78 1886,-295.06"/>
<polygon fill="black" stroke="black" points="1883.15,-297.09 1892.05,-302.84 1888.68,-292.8 1883.15,-297.09"/>
<text text-anchor="middle" x="1894.11" y="-274.6" font-family="Times,serif" font-size="14.00">south</text>
</g>
<!-- 11286930246448023469 -->
<g id="node6" class="node">
<title>11286930246448023469</title>
<ellipse fill="none" stroke="black" cx="3107" cy="-122.8" rx="220.76" ry="18"/>
<text text-anchor="middle" x="3107" y="-118.6" font-family="Times,serif" font-size="14.00">custom room - That door is locked. What do you do?: </text>
</g>
<!-- 3685013442293252759&#45;&gt;11286930246448023469 -->
<g id="edge9" class="edge">
<title>3685013442293252759-&gt;11286930246448023469</title>
<path fill="none" stroke="black" d="M2362.16,-218.63C2527.08,-209.84 2708.39,-195.85 2874,-173.6 2927.02,-166.48 2985.94,-153.84 3031.27,-143.08"/>
<polygon fill="black" stroke="black" points="3031.81,-146.55 3040.72,-140.81 3030.18,-139.74 3031.81,-146.55"/>
<text text-anchor="middle" x="2803.73" y="-185.8" font-family="Times,serif" font-size="14.00">north</text>
</g>
<!-- 4837243645299043529 -->
<g id="node7" class="node">
<title>4837243645299043529</title>
<ellipse fill="none" stroke="green" stroke-width="3" cx="651" cy="-122.8" rx="635.3" ry="18"/>
<text text-anchor="middle" x="651" y="-118.6" font-family="Times,serif" font-size="14.00">Ruins - You stand in what seems to have once been a dining hall; broken tables and pottery are scattered everywhere.  A staircase here leads down.: concave coin</text>
</g>
<!-- 3685013442293252759&#45;&gt;4837243645299043529 -->
<g id="edge11" class="edge">
<title>3685013442293252759-&gt;4837243645299043529</title>
<path fill="none" stroke="black" d="M1486.43,-216.87C1406.71,-211.88 1321.87,-205.74 1243.23,-198.4 1086.27,-183.75 906.72,-160.17 786.86,-143.44"/>
<polygon fill="black" stroke="black" points="787.7,-140.03 777.31,-142.11 786.73,-146.96 787.7,-140.03"/>
<text text-anchor="middle" x="1254.12" y="-185.8" font-family="Times,serif" font-size="14.00">east</text>
</g>
<!-- 14062824315851764555 -->
<g id="node8" class="node">
<title>14062824315851764555</title>
<ellipse fill="none" stroke="green" stroke-width="3" cx="2083" cy="-122.8" rx="778.83" ry="18"/>
<text text-anchor="middle" x="2083" y="-118.6" font-family="Times,serif" font-size="14.00">Ruins - You find yourself in what was once the living quarters for the complex.  Many smaller rooms which once had walls to divide them now lay in disarray.  There is a staircase up here.: blue coin</text>
</g>
<!-- 3685013442293252759&#45;&gt;14062824315851764555 -->
<g id="edge12" class="edge">
<title>3685013442293252759-&gt;14062824315851764555</title>
<path fill="none" stroke="black" d="M1859.99,-216.03C1905.4,-197.25 1977.99,-167.23 2027.94,-146.57"/>
<polygon fill="black" stroke="black" points="2029.25,-149.82 2037.16,-142.76 2026.58,-143.35 2029.25,-149.82"/>
<text text-anchor="middle" x="1955.39" y="-185.8" font-family="Times,serif" font-size="14.00">west</text>
</g>
<!-- 4837243645299043529&#45;&gt;3685013442293252759 -->
<g id="edge17" class="edge">
<title>4837243645299043529-&gt;3685013442293252759</title>
<path fill="none" stroke="black" d="M838.6,-141.42C1054,-161.65 1405.61,-194.67 1623.76,-215.16"/>
<polygon fill="black" stroke="black" points="1623.22,-218.62 1633.51,-216.07 1623.88,-211.65 1623.22,-218.62"/>
<text text-anchor="middle" x="1453.36" y="-185.8" font-family="Times,serif" font-size="14.00">west</text>
</g>
<!-- 9931117542447876224 -->
<g id="node10" class="node">
<title>9931117542447876224</title>
<ellipse fill="none" stroke="green" stroke-width="3" cx="651" cy="-34" rx="558.9" ry="18"/>
<text text-anchor="middle" x="651" y="-29.8" font-family="Times,serif" font-size="14.00">Ruins - This seems to be a kitchen; there are brick stoves and shelves along the wall.  Everything here has fallen into disrepair.: corroded coin</text>
</g>
<!-- 4837243645299043529&#45;&gt;9931117542447876224 -->
<g id="edge16" class="edge">
<title>4837243645299043529-&gt;9931117542447876224</title>
<path fill="none" stroke="black" d="M633.92,-103.45C630.23,-98.41 626.85,-92.7 624.89,-86.8 622.54,-79.71 622.54,-77.09 624.89,-70 625.69,-67.6 626.72,-65.24 627.91,-62.94"/>
<polygon fill="black" stroke="black" points="630.77,-64.96 633.12,-54.63 624.84,-61.24 630.77,-64.96"/>
<text text-anchor="middle" x="640.44" y="-74.2" font-family="Times,serif" font-size="14.00">down</text>
</g>
<!-- 14062824315851764555&#45;&gt;3685013442293252759 -->
<g id="edge14" class="edge">
<title>14062824315851764555-&gt;3685013442293252759</title>
<path fill="none" stroke="black" d="M2061.05,-142.16C2039.63,-159.17 2005.47,-183.95 1972,-198.4 1958.76,-204.12 1944.46,-208.96 1930.1,-213.05"/>
<polygon fill="black" stroke="black" points="1929.31,-209.64 1920.58,-215.64 1931.14,-216.39 1929.31,-209.64"/>
<text text-anchor="middle" x="2012.19" y="-185.8" font-family="Times,serif" font-size="14.00">east</text>
</g>
<!-- 16652186511912004206 -->
<g id="node9" class="node">
<title>16652186511912004206</title>
<ellipse fill="none" stroke="green" stroke-width="3" cx="2083" cy="-34" rx="730.04" ry="18"/>
<text text-anchor="middle" x="2083" y="-29.8" font-family="Times,serif" font-size="14.00">Ruins - This was long ago a lavish throne room.  Dried-up fountains and crumbling statues line the walls, and the carved stone throne in the center of the room is falling apart.: shiny coin</text>
</g>
<!-- 14062824315851764555&#45;&gt;16652186511912004206 -->
<g id="edge13" class="edge">
<title>14062824315851764555-&gt;16652186511912004206</title>
<path fill="none" stroke="black" d="M2071.56,-103.55C2068.87,-98.34 2066.38,-92.51 2065,-86.8 2063.24,-79.54 2063.24,-77.26 2065,-70 2065.52,-67.86 2066.19,-65.7 2066.97,-63.57"/>
<polygon fill="black" stroke="black" points="2070.08,-65.19 2070.94,-54.63 2063.68,-62.35 2070.08,-65.19"/>
<text text-anchor="middle" x="2072" y="-74.2" font-family="Times,serif" font-size="14.00">up</text>
</g>
<!-- 16652186511912004206&#45;&gt;14062824315851764555 -->
<g id="edge15" class="edge">
<title>16652186511912004206-&gt;14062824315851764555</title>
<path fill="none" stroke="black" d="M2083,-53.38C2083,-64.65 2083,-79.35 2083,-92.22"/>
<polygon fill="black" stroke="black" points="2079.5,-91.88 2083,-101.88 2086.5,-91.88 2079.5,-91.88"/>
<text text-anchor="middle" x="2098.56" y="-74.2" font-family="Times,serif" font-size="14.00">down</text>
</g>
<!-- 9931117542447876224&#45;&gt;4837243645299043529 -->
<g id="edge18" class="edge">
<title>9931117542447876224-&gt;4837243645299043529</title>
<path fill="none" stroke="black" d="M654.14,-53.47C654.91,-58.79 655.62,-64.61 656,-70 656.53,-77.45 656.53,-79.35 656,-86.8 655.88,-88.48 655.73,-90.21 655.55,-91.95"/>
<polygon fill="black" stroke="black" points="652.09,-91.47 654.33,-101.82 659.03,-92.33 652.09,-91.47"/>
<text text-anchor="middle" x="663.4" y="-74.2" font-family="Times,serif" font-size="14.00">up</text>
</g>
</g>
</svg>