<svg width="3645pt" height="488pt" viewBox="0.00 0.00 3644.83 488.00" xmlns="http://www.w3.org/2000/svg" xmlns:xlink="http://www.w3.org/1999/xlink">
<g id="graph0" class="graph" transform="scale(1 1) rotate(0) translate(4 484)">
<title>G</title>
<polygon fill="white" stroke="none" points="-4,4 -4,-484 3640.83,-484 3640.83,4 -4,4"/>
<!-- 2764481873881564037 -->
<g id="node1" class="node">
<title>2764481873881564037</title>
<polygon fill="none" stroke="black" points="1118,-480 450.1,-462 1118,-444 1785.9,-462 1118,-480"/>
<polyline fill="none" stroke="black" points="462.09,-462.32 462.09,-461.68"/>
<polyline fill="none" stroke="black" points="1106,-444.32 1129.99,-444.32"/>
<polyline fill="none" stroke="black" points="1773.91,-461.68 1773.91,-462.32"/>
<polyline fill="none" stroke="black" points="1129.99,-479.68 1106,-479.68"/>
<text text-anchor="middle" x="1118" y="-457.8" font-family="Times,serif" font-size="14.00">Dark passage - You are in a dark, narrow passage.  To the west, you spot some vegetation where the passage expands.: </text>
</g>
<!-- 2780483773285637748 -->
<g id="node2" class="node">
<title>2780483773285637748</title>
<ellipse fill="none" stroke="black" cx="210" cy="-373.2" rx="210" ry="18"/>
<text text-anchor="middle" x="210" y="-369" font-family="Times,serif" font-size="14.00">Dark passage - You are in a dark, narrow passage.: </text>
</g>
<!-- 2764481873881564037&#45;&gt;2780483773285637748 -->
<g id="edge1" class="edge">
<title>2764481873881564037-&gt;2780483773285637748</title>
<path fill="none" stroke="black" d="M975.62,-447.39C807.34,-431.3 528.66,-404.66 357.97,-388.35"/>
<polygon fill="black" stroke="black" points="358.43,-384.87 348.14,-387.41 357.76,-391.84 358.43,-384.87"/>
<text text-anchor="middle" x="756.21" y="-413.4" font-family="Times,serif" font-size="14.00">east</text>
</g>
<!-- 2524786013302725742 -->
<g id="node3" class="node">
<title>2524786013302725742</title>
<ellipse fill="none" stroke="black" cx="1472" cy="-373.2" rx="994.66" ry="18"/>
<text text-anchor="middle" x="1472" y="-369" font-family="Times,serif" font-size="14.00">Ruins - You stand in a large cavern with a huge ruin to the north, overgrown by plant life.  There is a large stone archway to the north acting as the doorway to the ruined complex.  A crevice in the rock to the east leads to an alarmingly dark passageway.: </text>
</g>
<!-- 2764481873881564037&#45;&gt;2524786013302725742 -->
<g id="edge2" class="edge">
<title>2764481873881564037-&gt;2524786013302725742</title>
<path fill="none" stroke="black" d="M1182.11,-445.28C1240.37,-430.99 1326.65,-409.84 1389.94,-394.32"/>
<polygon fill="black" stroke="black" points="1390.73,-397.73 1399.61,-391.95 1389.06,-390.93 1390.73,-397.73"/>
<text text-anchor="middle" x="1339.54" y="-413.4" font-family="Times,serif" font-size="14.00">west</text>
</g>
<!-- 2780483773285637748&#45;&gt;2764481873881564037 -->
<g id="edge4" class="edge">
<title>2780483773285637748-&gt;2764481873881564037</title>
<path fill="none" stroke="black" d="M371.7,-385.02C403.62,-387.1 436.86,-389.25 468,-391.2 602.64,-399.63 636.82,-395.23 771,-409.2 855.36,-417.98 950.61,-432.54 1019.95,-443.99"/>
<polygon fill="black" stroke="black" points="1019.35,-447.44 1029.79,-445.62 1020.5,-440.53 1019.35,-447.44"/>
<text text-anchor="middle" x="908.25" y="-413.4" font-family="Times,serif" font-size="14.00">west</text>
</g>
<!-- 2780483773285637748&#45;&gt;2780483773285637748 -->
<g id="edge3" class="edge">
<title>2780483773285637748-&gt;2780483773285637748</title>
<path fill="none" stroke="black" d="M405.4,-380.04C425.3,-378.69 438,-376.41 438,-373.2 438,-370.64 429.93,-368.68 416.59,-367.3"/>
<polygon fill="black" stroke="black" points="417.17,-363.83 406.91,-366.48 416.58,-370.81 417.17,-363.83"/>
<text text-anchor="middle" x="448.88" y="-369" font-family="Times,serif" font-size="14.00">east</text>
</g>
<!-- 2524786013302725742&#45;&gt;2764481873881564037 -->
<g id="edge5" class="edge">
<title>2524786013302725742-&gt;2764481873881564037</title>
<path fill="none" stroke="black" d="M1439.41,-391.65C1416.65,-403.11 1385.22,-417.5 1356,-426 1327.73,-434.22 1296.98,-440.57 1267.26,-445.45"/>
<polygon fill="black" stroke="black" points="1266.75,-441.99 1257.43,-447.01 1267.85,-448.9 1266.75,-441.99"/>
<text text-anchor="middle" x="1412.68" y="-413.4" font-family="Times,serif" font-size="14.00">east</text>
</g>
<!-- 18339072520580497338 -->
<g id="node4" class="node">
<title>18339072520580497338</title>
<ellipse fill="none" stroke="green" cx="1471" cy="-284.4" rx="766.22" ry="18"/>
<text text-anchor="middle" x="1471" y="-280.2" font-family="Times,serif" font-size="14.00">Ruins - You are in the once-opulent foyer of a massive ruined complex.  There is a door to the south leading to the overgrowth outside and stairs to the north which lead into a larger hall.: red coin</text>
</g>
<!-- 2524786013302725742&#45;&gt;18339072520580497338 -->
<g id="edge6" class="edge">
<title>2524786013302725742-&gt;18339072520580497338</title>
<path fill="none" stroke="black" d="M1456.08,-354.9C1452.16,-349.6 1448.5,-343.49 1446.45,-337.2 1444.13,-330.1 1444.2,-327.52 1446.45,-320.4 1447.31,-317.68 1448.46,-314.98 1449.81,-312.36"/>
<polygon fill="black" stroke="black" points="1452.65,-314.43 1454.9,-304.08 1446.68,-310.76 1452.65,-314.43"/>
<text text-anchor="middle" x="1461.22" y="-324.6" font-family="Times,serif" font-size="14.00">north</text>
</g>
<!-- 18339072520580497338&#45;&gt;2524786013302725742 -->
<g id="edge8" class="edge">
<title>18339072520580497338-&gt;2524786013302725742</title>
<path fill="none" stroke="black" d="M1473.98,-302.79C1474.81,-308.4 1475.59,-314.64 1476,-320.4 1476.54,-327.96 1476.29,-336.13 1475.72,-343.71"/>
<polygon fill="black" stroke="black" points="1472.26,-343.14 1474.76,-353.43 1479.22,-343.82 1472.26,-343.14"/>
<text text-anchor="middle" x="1491.47" y="-324.6" font-family="Times,serif" font-size="14.00">south</text>
</g>
<!-- 1561997437177325037 -->
<g id="node5" class="node">
<title>1561997437177325037</title>
<ellipse fill="none" stroke="black" cx="1471" cy="-195.6" rx="1044.04" ry="18"/>
<text text-anchor="middle" x="1471" y="-191.4" font-family="Times,serif" font-size="14.00">Ruins - You stand in the massive central hall of these ruins.  The walls are crumbling, and vegetation has clearly taken over.  Rooms are attached in all directions.  There is a strange monument in the center of the hall with circular slots and unusual symbols.  It reads:: </text>
</g>
<!-- 18339072520580497338&#45;&gt;1561997437177325037 -->
<g id="edge7" class="edge">
<title>18339072520580497338-&gt;1561997437177325037</title>
<path fill="none" stroke="black" d="M1455.7,-266.01C1451.93,-260.71 1448.41,-254.63 1446.45,-248.4 1444.2,-241.28 1444.2,-238.72 1446.45,-231.6 1447.31,-228.88 1448.46,-226.18 1449.81,-223.56"/>
<polygon fill="black" stroke="black" points="1452.65,-225.63 1454.9,-215.28 1446.68,-221.96 1452.65,-225.63"/>
<text text-anchor="middle" x="1461.22" y="-235.8" font-family="Times,serif" font-size="14.00">north</text>
</g>
<!-- 1561997437177325037&#45;&gt;18339072520580497338 -->
<g id="edge10" class="edge">
<title>1561997437177325037-&gt;18339072520580497338</title>
<path fill="none" stroke="black" d="M1473.98,-213.99C1474.81,-219.6 1475.59,-225.84 1476,-231.6 1476.53,-239.05 1476.53,-240.95 1476,-248.4 1475.85,-250.47 1475.66,-252.6 1475.43,-254.74"/>
<polygon fill="black" stroke="black" points="1471.98,-254.14 1474.17,-264.5 1478.92,-255.03 1471.98,-254.14"/>
<text text-anchor="middle" x="1491.56" y="-235.8" font-family="Times,serif" font-size="14.00">south</text>
</g>
<!-- 6558233254931703332 -->
<g id="node6" class="node">
<title>6558233254931703332</title>
<ellipse fill="none" stroke="black" cx="670" cy="-106.8" rx="102.78" ry="18"/>
<text text-anchor="middle" x="670" y="-102.6" font-family="Times,serif" font-size="14.00">6558233254931703332</text>
</g>
<!-- 1561997437177325037&#45;&gt;6558233254931703332 -->
<g id="edge9" class="edge">
<title>1561997437177325037-&gt;6558233254931703332</title>
<path fill="none" stroke="black" d="M1275.81,-177.43C1137.7,-164.65 948.25,-145.82 782,-124.8 773.42,-123.72 764.49,-122.5 755.58,-121.24"/>
<polygon fill="black" stroke="black" points="756.23,-117.79 745.83,-119.83 755.22,-124.72 756.23,-117.79"/>
<text text-anchor="middle" x="1098.83" y="-147" font-family="Times,serif" font-size="14.00">north</text>
</g>
<!-- 5855307570272566028 -->
<g id="node7" class="node">
<title>5855307570272566028</title>
<ellipse fill="none" stroke="green" cx="1426" cy="-106.8" rx="635.3" ry="18"/>
<text text-anchor="middle" x="1426" y="-102.6" font-family="Times,serif" font-size="14.00">Ruins - You stand in what seems to have once been a dining hall; broken tables and pottery are scattered everywhere.  A staircase here leads down.: concave coin</text>
</g>
<!-- 1561997437177325037&#45;&gt;5855307570272566028 -->
<g id="edge11" class="edge">
<title>1561997437177325037-&gt;5855307570272566028</title>
<path fill="none" stroke="black" d="M1441.83,-177.23C1435.98,-172.31 1430.6,-166.4 1427.23,-159.6 1423.73,-152.53 1422.48,-144.23 1422.36,-136.37"/>
<polygon fill="black" stroke="black" points="1425.85,-136.66 1422.81,-126.51 1418.85,-136.34 1425.85,-136.66"/>
<text text-anchor="middle" x="1438.12" y="-147" font-family="Times,serif" font-size="14.00">east</text>
</g>
<!-- 11129887994977553942 -->
<g id="node8" class="node">
<title>11129887994977553942</title>
<ellipse fill="none" stroke="green" cx="2858" cy="-106.8" rx="778.83" ry="18"/>
<text text-anchor="middle" x="2858" y="-102.6" font-family="Times,serif" font-size="14.00">Ruins - You find yourself in what was once the living quarters for the complex.  Many smaller rooms which once had walls to divide them now lay in disarray.  There is a staircase up here.: blue coin</text>
</g>
<!-- 1561997437177325037&#45;&gt;11129887994977553942 -->
<g id="edge12" class="edge">
<title>1561997437177325037-&gt;11129887994977553942</title>
<path fill="none" stroke="black" d="M1740.48,-177.74C1983.76,-162.51 2340.02,-140.22 2584.52,-124.91"/>
<polygon fill="black" stroke="black" points="2584.44,-128.43 2594.2,-124.31 2584,-121.44 2584.44,-128.43"/>
<text text-anchor="middle" x="2301.56" y="-147" font-family="Times,serif" font-size="14.00">west</text>
</g>
<!-- 5855307570272566028&#45;&gt;1561997437177325037 -->
<g id="edge17" class="edge">
<title>5855307570272566028-&gt;1561997437177325037</title>
<path fill="none" stroke="black" d="M1438.34,-125.23C1441.98,-130.72 1445.84,-136.9 1449,-142.8 1453.07,-150.41 1456.96,-158.94 1460.29,-166.84"/>
<polygon fill="black" stroke="black" points="1457.03,-168.1 1464.04,-176.04 1463.51,-165.46 1457.03,-168.1"/>
<text text-anchor="middle" x="1469.93" y="-147" font-family="Times,serif" font-size="14.00">west</text>
</g>
<!-- 1738601857378134878 -->
<g id="node10" class="node">
<title>1738601857378134878</title>
<ellipse fill="none" stroke="green" cx="1426" cy="-18" rx="558.9" ry="18"/>
<text text-anchor="middle" x="1426" y="-13.8" font-family="Times,serif" font-size="14.00">Ruins - This seems to be a kitchen; there are brick stoves and shelves along the wall.  Everything here has fallen into disrepair.: corroded coin</text>
</g>
<!-- 5855307570272566028&#45;&gt;1738601857378134878 -->
<g id="edge16" class="edge">
<title>5855307570272566028-&gt;1738601857378134878</title>
<path fill="none" stroke="black" d="M1409.74,-88.54C1405.73,-83.25 1401.99,-77.13 1399.89,-70.8 1397.54,-63.71 1397.54,-61.09 1399.89,-54 1400.81,-51.23 1402.04,-48.5 1403.47,-45.86"/>
<polygon fill="black" stroke="black" points="1406.38,-47.81 1408.91,-37.52 1400.52,-43.99 1406.38,-47.81"/>
<text text-anchor="middle" x="1415.44" y="-58.2" font-family="Times,serif" font-size="14.00">down</text>
</g>
<!-- 11129887994977553942&#45;&gt;1561997437177325037 -->
<g id="edge14" class="edge">
<title>11129887994977553942-&gt;1561997437177325037</title>
<path fill="none" stroke="black" d="M2703.1,-124.91C2595.25,-136.27 2448.02,-150.68 2318,-159.6 2203.76,-167.43 2080.73,-173.74 1964.8,-178.72"/>
<polygon fill="black" stroke="black" points="1964.95,-175.21 1955.11,-179.13 1965.25,-182.2 1964.95,-175.21"/>
<text text-anchor="middle" x="2522.15" y="-147" font-family="Times,serif" font-size="14.00">east</text>
</g>
<!-- 721614358741170195 -->
<g id="node9" class="node">
<title>721614358741170195</title>
<ellipse fill="none" stroke="green" cx="2858" cy="-18" rx="730.04" ry="18"/>
<text text-anchor="middle" x="2858" y="-13.8" font-family="Times,serif" font-size="14.00">Ruins - This was long ago a lavish throne room.  Dried-up fountains and crumbling statues line the walls, and the carved stone throne in the center of the room is falling apart.: shiny coin</text>
</g>
<!-- 11129887994977553942&#45;&gt;721614358741170195 -->
<g id="edge13" class="edge">
<title>11129887994977553942-&gt;721614358741170195</title>
<path fill="none" stroke="black" d="M2847.12,-88.63C2844.22,-83.15 2841.48,-76.91 2840,-70.8 2838.24,-63.54 2838.24,-61.26 2840,-54 2840.6,-51.52 2841.41,-49.01 2842.35,-46.55"/>
<polygon fill="black" stroke="black" points="2845.5,-48.09 2846.49,-37.54 2839.14,-45.17 2845.5,-48.09"/>
<text text-anchor="middle" x="2847" y="-58.2" font-family="Times,serif" font-size="14.00">up</text>
</g>
<!-- 721614358741170195&#45;&gt;11129887994977553942 -->
<g id="edge15" class="edge">
<title>721614358741170195-&gt;11129887994977553942</title>
<path fill="none" stroke="black" d="M2858,-36.41C2858,-48.16 2858,-63.94 2858,-77.48"/>
<polygon fill="black" stroke="black" points="2854.5,-77.14 2858,-87.14 2861.5,-77.14 2854.5,-77.14"/>
<text text-anchor="middle" x="2873.55" y="-58.2" font-family="Times,serif" font-size="14.00">down</text>
</g>
<!-- 1738601857378134878&#45;&gt;5855307570272566028 -->
<g id="edge18" class="edge">
<title>1738601857378134878-&gt;5855307570272566028</title>
<path fill="none" stroke="black" d="M1428.98,-36.39C1429.81,-42 1430.59,-48.24 1431,-54 1431.53,-61.45 1431.53,-63.35 1431,-70.8 1430.85,-72.87 1430.66,-75 1430.43,-77.14"/>
<polygon fill="black" stroke="black" points="1426.98,-76.54 1429.17,-86.9 1433.92,-77.43 1426.98,-76.54"/>
<text text-anchor="middle" x="1438.4" y="-58.2" font-family="Times,serif" font-size="14.00">up</text>
</g>
</g>
</svg>